solid Default
  facet normal -4.005708e-11 1.967145e-11 -1.000000e+00
    outer loop
      vertex -2.042901e+01 1.913200e+01 4.263256e-14
      vertex 2.035601e+01 3.607761e+01 0.000000e+00
      vertex 3.716050e+00 -3.607761e+01 1.435296e-12
    endloop
  endfacet
  facet normal -5.342740e-08 4.977568e-08 1.000000e+00
    outer loop
      vertex 3.340798e+00 -2.970937e+01 1.001651e+00
      vertex 1.748476e+01 3.162257e+01 1.001649e+00
      vertex -1.718251e+01 1.721880e+01 1.001648e+00
    endloop
  endfacet
  facet normal -5.837902e-07 5.381968e-08 1.000000e+00
    outer loop
      vertex 5.256242e+00 4.546128e+00 1.201975e+01
      vertex 7.371225e+00 2.416271e+01 1.201975e+01
      vertex -2.825031e+00 1.992630e+01 1.201975e+01
    endloop
  endfacet
  facet normal 1.019036e-07 4.140692e-07 1.000000e+00
    outer loop
      vertex 5.256242e+00 4.546128e+00 1.201975e+01
      vertex -2.825031e+00 1.992630e+01 1.201975e+01
      vertex -7.871523e+00 -3.892384e-02 1.201976e+01
    endloop
  endfacet
  facet normal 1.721095e-07 2.135465e-07 1.000000e+00
    outer loop
      vertex 5.256242e+00 4.546128e+00 1.201975e+01
      vertex -7.871523e+00 -3.892384e-02 1.201976e+01
      vertex -1.835256e+00 -1.384133e+01 1.201976e+01
    endloop
  endfacet
  facet normal -4.541869e-07 4.552496e-07 1.000000e+00
    outer loop
      vertex 5.256242e+00 4.546128e+00 1.201975e+01
      vertex -1.835256e+00 -1.384133e+01 1.201976e+01
      vertex 1.626903e+01 -1.048540e+01 1.201977e+01
    endloop
  endfacet
  facet normal -1.037337e-06 2.791956e-08 1.000000e+00
    outer loop
      vertex 5.256242e+00 4.546128e+00 1.201975e+01
      vertex 1.626903e+01 -1.048540e+01 1.201977e+01
      vertex 2.042901e+01 7.553408e+00 1.201977e+01
    endloop
  endfacet
  facet normal -1.052354e-06 1.044043e-07 1.000000e+00
    outer loop
      vertex 5.256242e+00 4.546128e+00 1.201975e+01
      vertex 2.042901e+01 7.553408e+00 1.201977e+01
      vertex 7.371225e+00 2.416271e+01 1.201975e+01
    endloop
  endfacet
  facet normal -5.513025e-04 1.444395e-03 9.999988e-01
    outer loop
      vertex 1.813663e+00 3.347246e+00 1.306766e+01
      vertex 1.814542e+00 2.544946e+00 1.306882e+01
      vertex 2.451173e+00 2.544248e+00 1.306917e+01
    endloop
  endfacet
  facet normal -5.513025e-04 1.444395e-03 9.999988e-01
    outer loop
      vertex 1.813663e+00 3.347246e+00 1.306766e+01
      vertex 2.451173e+00 2.544248e+00 1.306917e+01
      vertex 2.450294e+00 3.346548e+00 1.306801e+01
    endloop
  endfacet
  facet normal -5.632865e-04 1.444382e-03 9.999988e-01
    outer loop
      vertex 2.450294e+00 3.346548e+00 1.306801e+01
      vertex 2.451173e+00 2.544248e+00 1.306917e+01
      vertex 3.087802e+00 2.543548e+00 1.306953e+01
    endloop
  endfacet
  facet normal -5.512920e-04 1.453905e-03 9.999988e-01
    outer loop
      vertex 2.450294e+00 3.346548e+00 1.306801e+01
      vertex 3.087802e+00 2.543548e+00 1.306953e+01
      vertex 3.086925e+00 3.345849e+00 1.306837e+01
    endloop
  endfacet
  facet normal -5.512920e-04 1.453905e-03 9.999988e-01
    outer loop
      vertex 3.086925e+00 3.345849e+00 1.306837e+01
      vertex 3.087802e+00 2.543548e+00 1.306953e+01
      vertex 3.724433e+00 2.542850e+00 1.306989e+01
    endloop
  endfacet
  facet normal -5.632865e-04 1.444382e-03 9.999988e-01
    outer loop
      vertex 3.086925e+00 3.345849e+00 1.306837e+01
      vertex 3.724433e+00 2.542850e+00 1.306989e+01
      vertex 3.723554e+00 3.345151e+00 1.306873e+01
    endloop
  endfacet
  facet normal 9.999992e-01 1.096353e-03 5.497212e-04
    outer loop
      vertex 3.723554e+00 3.345151e+00 1.306873e+01
      vertex 3.724433e+00 2.542850e+00 1.306989e+01
      vertex 3.724986e+00 2.541403e+00 1.206658e+01
    endloop
  endfacet
  facet normal 9.999992e-01 1.096356e-03 5.497191e-04
    outer loop
      vertex 3.723554e+00 3.345151e+00 1.306873e+01
      vertex 3.724986e+00 2.541403e+00 1.206658e+01
      vertex 3.724107e+00 3.343702e+00 1.206542e+01
    endloop
  endfacet
  facet normal -5.513025e-04 1.444395e-03 9.999988e-01
    outer loop
      vertex 3.724107e+00 3.343702e+00 1.206542e+01
      vertex 3.724986e+00 2.541403e+00 1.206658e+01
      vertex 4.361615e+00 2.540703e+00 1.206694e+01
    endloop
  endfacet
  facet normal -5.513025e-04 1.444395e-03 9.999988e-01
    outer loop
      vertex 3.724107e+00 3.343702e+00 1.206542e+01
      vertex 4.361615e+00 2.540703e+00 1.206694e+01
      vertex 4.360738e+00 3.343004e+00 1.206578e+01
    endloop
  endfacet
  facet normal -9.999992e-01 -1.093976e-03 -5.497226e-04
    outer loop
      vertex 4.360738e+00 3.343004e+00 1.206578e+01
      vertex 4.361615e+00 2.540703e+00 1.206694e+01
      vertex 4.361062e+00 2.542153e+00 1.307024e+01
    endloop
  endfacet
  facet normal -9.999992e-01 -1.093976e-03 -5.497226e-04
    outer loop
      vertex 4.360738e+00 3.343004e+00 1.206578e+01
      vertex 4.361062e+00 2.542153e+00 1.307024e+01
      vertex 4.360185e+00 3.344453e+00 1.306908e+01
    endloop
  endfacet
  facet normal -5.513025e-04 1.444395e-03 9.999988e-01
    outer loop
      vertex 4.360185e+00 3.344453e+00 1.306908e+01
      vertex 4.361062e+00 2.542153e+00 1.307024e+01
      vertex 4.997693e+00 2.541453e+00 1.307059e+01
    endloop
  endfacet
  facet normal -5.513025e-04 1.444395e-03 9.999988e-01
    outer loop
      vertex 4.360185e+00 3.344453e+00 1.306908e+01
      vertex 4.997693e+00 2.541453e+00 1.307059e+01
      vertex 4.996816e+00 3.343755e+00 1.306943e+01
    endloop
  endfacet
  facet normal 9.999992e-01 1.093973e-03 5.497246e-04
    outer loop
      vertex 4.996816e+00 3.343755e+00 1.306943e+01
      vertex 4.997693e+00 2.541453e+00 1.307059e+01
      vertex 4.998246e+00 2.540006e+00 1.206729e+01
    endloop
  endfacet
  facet normal 9.999992e-01 1.096350e-03 5.478181e-04
    outer loop
      vertex 4.996816e+00 3.343755e+00 1.306943e+01
      vertex 4.998246e+00 2.540006e+00 1.206729e+01
      vertex 4.997367e+00 3.342306e+00 1.206613e+01
    endloop
  endfacet
  facet normal -5.513025e-04 1.444395e-03 9.999988e-01
    outer loop
      vertex 4.997367e+00 3.342306e+00 1.206613e+01
      vertex 4.998246e+00 2.540006e+00 1.206729e+01
      vertex 5.634877e+00 2.539306e+00 1.206764e+01
    endloop
  endfacet
  facet normal -5.513025e-04 1.444395e-03 9.999988e-01
    outer loop
      vertex 4.997367e+00 3.342306e+00 1.206613e+01
      vertex 5.634877e+00 2.539306e+00 1.206764e+01
      vertex 5.633998e+00 3.341606e+00 1.206648e+01
    endloop
  endfacet
  facet normal -5.632865e-04 1.444382e-03 9.999988e-01
    outer loop
      vertex 5.633998e+00 3.341606e+00 1.206648e+01
      vertex 5.634877e+00 2.539306e+00 1.206764e+01
      vertex 6.271506e+00 2.538608e+00 1.206800e+01
    endloop
  endfacet
  facet normal -5.632865e-04 1.444382e-03 9.999988e-01
    outer loop
      vertex 5.633998e+00 3.341606e+00 1.206648e+01
      vertex 6.271506e+00 2.538608e+00 1.206800e+01
      vertex 6.270629e+00 3.340909e+00 1.206684e+01
    endloop
  endfacet
  facet normal -5.513025e-04 1.444395e-03 9.999988e-01
    outer loop
      vertex 6.270629e+00 3.340909e+00 1.206684e+01
      vertex 6.271506e+00 2.538608e+00 1.206800e+01
      vertex 6.908137e+00 2.537910e+00 1.206835e+01
    endloop
  endfacet
  facet normal -5.513025e-04 1.444395e-03 9.999988e-01
    outer loop
      vertex 6.270629e+00 3.340909e+00 1.206684e+01
      vertex 6.908137e+00 2.537910e+00 1.206835e+01
      vertex 6.907260e+00 3.340211e+00 1.206719e+01
    endloop
  endfacet
  facet normal -9.999992e-01 -1.093981e-03 -5.535227e-04
    outer loop
      vertex 6.907260e+00 3.340211e+00 1.206719e+01
      vertex 6.908137e+00 2.537910e+00 1.206835e+01
      vertex 6.907580e+00 2.539361e+00 1.307164e+01
    endloop
  endfacet
  facet normal -9.999992e-01 -1.093981e-03 -5.535227e-04
    outer loop
      vertex 6.907260e+00 3.340211e+00 1.206719e+01
      vertex 6.907580e+00 2.539361e+00 1.307164e+01
      vertex 6.906703e+00 3.341662e+00 1.307048e+01
    endloop
  endfacet
  facet normal -5.513025e-04 1.444395e-03 9.999988e-01
    outer loop
      vertex 6.906703e+00 3.341662e+00 1.307048e+01
      vertex 6.907580e+00 2.539361e+00 1.307164e+01
      vertex 7.544211e+00 2.538661e+00 1.307199e+01
    endloop
  endfacet
  facet normal -5.513025e-04 1.444395e-03 9.999988e-01
    outer loop
      vertex 6.906703e+00 3.341662e+00 1.307048e+01
      vertex 7.544211e+00 2.538661e+00 1.307199e+01
      vertex 7.543332e+00 3.340962e+00 1.307083e+01
    endloop
  endfacet
  facet normal -5.513025e-04 1.444395e-03 9.999988e-01
    outer loop
      vertex 7.543332e+00 3.340962e+00 1.307083e+01
      vertex 7.544211e+00 2.538661e+00 1.307199e+01
      vertex 8.180840e+00 2.537964e+00 1.307234e+01
    endloop
  endfacet
  facet normal -5.513025e-04 1.444395e-03 9.999988e-01
    outer loop
      vertex 7.543332e+00 3.340962e+00 1.307083e+01
      vertex 8.180840e+00 2.537964e+00 1.307234e+01
      vertex 8.179963e+00 3.340264e+00 1.307118e+01
    endloop
  endfacet
  facet normal -5.513025e-04 1.444395e-03 9.999988e-01
    outer loop
      vertex 8.179963e+00 3.340264e+00 1.307118e+01
      vertex 8.180840e+00 2.537964e+00 1.307234e+01
      vertex 8.817471e+00 2.537264e+00 1.307269e+01
    endloop
  endfacet
  facet normal -5.513025e-04 1.444395e-03 9.999988e-01
    outer loop
      vertex 8.179963e+00 3.340264e+00 1.307118e+01
      vertex 8.817471e+00 2.537264e+00 1.307269e+01
      vertex 8.816594e+00 3.339564e+00 1.307153e+01
    endloop
  endfacet
  facet normal -5.513025e-04 1.444395e-03 9.999988e-01
    outer loop
      vertex 1.813337e+00 4.148100e+00 1.206321e+01
      vertex 1.814216e+00 3.345799e+00 1.206437e+01
      vertex 2.450845e+00 3.345099e+00 1.206472e+01
    endloop
  endfacet
  facet normal -5.513025e-04 1.444395e-03 9.999988e-01
    outer loop
      vertex 1.813337e+00 4.148100e+00 1.206321e+01
      vertex 2.450845e+00 3.345099e+00 1.206472e+01
      vertex 2.449968e+00 4.147400e+00 1.206356e+01
    endloop
  endfacet
  facet normal -5.513025e-04 1.444395e-03 9.999988e-01
    outer loop
      vertex 2.449968e+00 4.147400e+00 1.206356e+01
      vertex 2.450845e+00 3.345099e+00 1.206472e+01
      vertex 3.087476e+00 3.344402e+00 1.206507e+01
    endloop
  endfacet
  facet normal -5.513025e-04 1.444395e-03 9.999988e-01
    outer loop
      vertex 2.449968e+00 4.147400e+00 1.206356e+01
      vertex 3.087476e+00 3.344402e+00 1.206507e+01
      vertex 3.086599e+00 4.146702e+00 1.206391e+01
    endloop
  endfacet
  facet normal -9.999992e-01 -1.093973e-03 -5.478236e-04
    outer loop
      vertex 3.086599e+00 4.146702e+00 1.206391e+01
      vertex 3.087476e+00 3.344402e+00 1.206507e+01
      vertex 3.086925e+00 3.345849e+00 1.306837e+01
    endloop
  endfacet
  facet normal -9.999992e-01 -1.093971e-03 -5.478215e-04
    outer loop
      vertex 3.086599e+00 4.146702e+00 1.206391e+01
      vertex 3.086925e+00 3.345849e+00 1.306837e+01
      vertex 3.086048e+00 4.148151e+00 1.306721e+01
    endloop
  endfacet
  facet normal -5.632865e-04 1.444382e-03 9.999988e-01
    outer loop
      vertex 3.086048e+00 4.148151e+00 1.306721e+01
      vertex 3.086925e+00 3.345849e+00 1.306837e+01
      vertex 3.723554e+00 3.345151e+00 1.306873e+01
    endloop
  endfacet
  facet normal -5.632866e-04 1.444382e-03 9.999988e-01
    outer loop
      vertex 3.086048e+00 4.148151e+00 1.306721e+01
      vertex 3.723554e+00 3.345151e+00 1.306873e+01
      vertex 3.722675e+00 4.147451e+00 1.306757e+01
    endloop
  endfacet
  facet normal 9.999992e-01 1.096353e-03 5.497191e-04
    outer loop
      vertex 3.722675e+00 4.147451e+00 1.306757e+01
      vertex 3.723554e+00 3.345151e+00 1.306873e+01
      vertex 3.724107e+00 3.343702e+00 1.206542e+01
    endloop
  endfacet
  facet normal 9.999992e-01 1.096350e-03 5.497211e-04
    outer loop
      vertex 3.722675e+00 4.147451e+00 1.306757e+01
      vertex 3.724107e+00 3.343702e+00 1.206542e+01
      vertex 3.723228e+00 4.146004e+00 1.206426e+01
    endloop
  endfacet
  facet normal -5.513025e-04 1.444395e-03 9.999988e-01
    outer loop
      vertex 3.723228e+00 4.146004e+00 1.206426e+01
      vertex 3.724107e+00 3.343702e+00 1.206542e+01
      vertex 4.360738e+00 3.343004e+00 1.206578e+01
    endloop
  endfacet
  facet normal -5.513025e-04 1.444395e-03 9.999988e-01
    outer loop
      vertex 3.723228e+00 4.146004e+00 1.206426e+01
      vertex 4.360738e+00 3.343004e+00 1.206578e+01
      vertex 4.359859e+00 4.145304e+00 1.206462e+01
    endloop
  endfacet
  facet normal -9.999992e-01 -1.096353e-03 -5.497191e-04
    outer loop
      vertex 4.359859e+00 4.145304e+00 1.206462e+01
      vertex 4.360738e+00 3.343004e+00 1.206578e+01
      vertex 4.360185e+00 3.344453e+00 1.306908e+01
    endloop
  endfacet
  facet normal -9.999992e-01 -1.096353e-03 -5.497191e-04
    outer loop
      vertex 4.359859e+00 4.145304e+00 1.206462e+01
      vertex 4.360185e+00 3.344453e+00 1.306908e+01
      vertex 4.359306e+00 4.146754e+00 1.306792e+01
    endloop
  endfacet
  facet normal -5.513025e-04 1.444395e-03 9.999988e-01
    outer loop
      vertex 4.359306e+00 4.146754e+00 1.306792e+01
      vertex 4.360185e+00 3.344453e+00 1.306908e+01
      vertex 4.996816e+00 3.343755e+00 1.306943e+01
    endloop
  endfacet
  facet normal -5.513025e-04 1.444395e-03 9.999988e-01
    outer loop
      vertex 4.359306e+00 4.146754e+00 1.306792e+01
      vertex 4.996816e+00 3.343755e+00 1.306943e+01
      vertex 4.995937e+00 4.146054e+00 1.306827e+01
    endloop
  endfacet
  facet normal 9.999992e-01 1.096353e-03 5.478181e-04
    outer loop
      vertex 4.995937e+00 4.146054e+00 1.306827e+01
      vertex 4.996816e+00 3.343755e+00 1.306943e+01
      vertex 4.997367e+00 3.342306e+00 1.206613e+01
    endloop
  endfacet
  facet normal 9.999992e-01 1.093976e-03 5.497247e-04
    outer loop
      vertex 4.995937e+00 4.146054e+00 1.306827e+01
      vertex 4.997367e+00 3.342306e+00 1.206613e+01
      vertex 4.996490e+00 4.144607e+00 1.206497e+01
    endloop
  endfacet
  facet normal -5.513025e-04 1.444395e-03 9.999988e-01
    outer loop
      vertex 4.996490e+00 4.144607e+00 1.206497e+01
      vertex 4.997367e+00 3.342306e+00 1.206613e+01
      vertex 5.633998e+00 3.341606e+00 1.206648e+01
    endloop
  endfacet
  facet normal -5.513025e-04 1.444395e-03 9.999988e-01
    outer loop
      vertex 4.996490e+00 4.144607e+00 1.206497e+01
      vertex 5.633998e+00 3.341606e+00 1.206648e+01
      vertex 5.633121e+00 4.143909e+00 1.206532e+01
    endloop
  endfacet
  facet normal -5.632865e-04 1.444382e-03 9.999988e-01
    outer loop
      vertex 5.633121e+00 4.143909e+00 1.206532e+01
      vertex 5.633998e+00 3.341606e+00 1.206648e+01
      vertex 6.270629e+00 3.340909e+00 1.206684e+01
    endloop
  endfacet
  facet normal -5.632865e-04 1.444382e-03 9.999988e-01
    outer loop
      vertex 5.633121e+00 4.143909e+00 1.206532e+01
      vertex 6.270629e+00 3.340909e+00 1.206684e+01
      vertex 6.269750e+00 4.143209e+00 1.206568e+01
    endloop
  endfacet
  facet normal -5.513025e-04 1.444395e-03 9.999988e-01
    outer loop
      vertex 6.269750e+00 4.143209e+00 1.206568e+01
      vertex 6.270629e+00 3.340909e+00 1.206684e+01
      vertex 6.907260e+00 3.340211e+00 1.206719e+01
    endloop
  endfacet
  facet normal -5.513025e-04 1.444395e-03 9.999988e-01
    outer loop
      vertex 6.269750e+00 4.143209e+00 1.206568e+01
      vertex 6.907260e+00 3.340211e+00 1.206719e+01
      vertex 6.906379e+00 4.142511e+00 1.206603e+01
    endloop
  endfacet
  facet normal -9.999992e-01 -1.098736e-03 -5.535158e-04
    outer loop
      vertex 6.906379e+00 4.142511e+00 1.206603e+01
      vertex 6.907260e+00 3.340211e+00 1.206719e+01
      vertex 6.906703e+00 3.341662e+00 1.307048e+01
    endloop
  endfacet
  facet normal -9.999992e-01 -1.096356e-03 -5.516182e-04
    outer loop
      vertex 6.906379e+00 4.142511e+00 1.206603e+01
      vertex 6.906703e+00 3.341662e+00 1.307048e+01
      vertex 6.905824e+00 4.143962e+00 1.306932e+01
    endloop
  endfacet
  facet normal -5.513025e-04 1.444395e-03 9.999988e-01
    outer loop
      vertex 6.905824e+00 4.143962e+00 1.306932e+01
      vertex 6.906703e+00 3.341662e+00 1.307048e+01
      vertex 7.543332e+00 3.340962e+00 1.307083e+01
    endloop
  endfacet
  facet normal -5.513025e-04 1.444395e-03 9.999988e-01
    outer loop
      vertex 6.905824e+00 4.143962e+00 1.306932e+01
      vertex 7.543332e+00 3.340962e+00 1.307083e+01
      vertex 7.542455e+00 4.143263e+00 1.306967e+01
    endloop
  endfacet
  facet normal 9.999992e-01 1.093981e-03 5.535227e-04
    outer loop
      vertex 7.542455e+00 4.143263e+00 1.306967e+01
      vertex 7.543332e+00 3.340962e+00 1.307083e+01
      vertex 7.543889e+00 3.339511e+00 1.206754e+01
    endloop
  endfacet
  facet normal 9.999992e-01 1.096356e-03 5.516182e-04
    outer loop
      vertex 7.542455e+00 4.143263e+00 1.306967e+01
      vertex 7.543889e+00 3.339511e+00 1.206754e+01
      vertex 7.543010e+00 4.141812e+00 1.206638e+01
    endloop
  endfacet
  facet normal -5.393184e-04 1.444408e-03 9.999988e-01
    outer loop
      vertex 7.543010e+00 4.141812e+00 1.206638e+01
      vertex 7.543889e+00 3.339511e+00 1.206754e+01
      vertex 8.180516e+00 3.338817e+00 1.206789e+01
    endloop
  endfacet
  facet normal -5.513129e-04 1.434886e-03 9.999988e-01
    outer loop
      vertex 7.543010e+00 4.141812e+00 1.206638e+01
      vertex 8.180516e+00 3.338817e+00 1.206789e+01
      vertex 8.179641e+00 4.141114e+00 1.206674e+01
    endloop
  endfacet
  facet normal -9.999992e-01 -1.091604e-03 -5.497281e-04
    outer loop
      vertex 8.179641e+00 4.141114e+00 1.206674e+01
      vertex 8.180516e+00 3.338817e+00 1.206789e+01
      vertex 8.179963e+00 3.340264e+00 1.307118e+01
    endloop
  endfacet
  facet normal -9.999992e-01 -1.093979e-03 -5.516216e-04
    outer loop
      vertex 8.179641e+00 4.141114e+00 1.206674e+01
      vertex 8.179963e+00 3.340264e+00 1.307118e+01
      vertex 8.179086e+00 4.142565e+00 1.307002e+01
    endloop
  endfacet
  facet normal -5.513025e-04 1.444395e-03 9.999988e-01
    outer loop
      vertex 8.179086e+00 4.142565e+00 1.307002e+01
      vertex 8.179963e+00 3.340264e+00 1.307118e+01
      vertex 8.816594e+00 3.339564e+00 1.307153e+01
    endloop
  endfacet
  facet normal -5.513025e-04 1.444395e-03 9.999988e-01
    outer loop
      vertex 8.179086e+00 4.142565e+00 1.307002e+01
      vertex 8.816594e+00 3.339564e+00 1.307153e+01
      vertex 8.815715e+00 4.141867e+00 1.307038e+01
    endloop
  endfacet
  facet normal -5.513025e-04 1.444395e-03 9.999988e-01
    outer loop
      vertex 1.811907e+00 4.951847e+00 1.306534e+01
      vertex 1.812786e+00 4.149547e+00 1.306650e+01
      vertex 2.449417e+00 4.148849e+00 1.306686e+01
    endloop
  endfacet
  facet normal -5.513025e-04 1.444395e-03 9.999988e-01
    outer loop
      vertex 1.811907e+00 4.951847e+00 1.306534e+01
      vertex 2.449417e+00 4.148849e+00 1.306686e+01
      vertex 2.448538e+00 4.951150e+00 1.306570e+01
    endloop
  endfacet
  facet normal -5.513025e-04 1.444395e-03 9.999988e-01
    outer loop
      vertex 2.448538e+00 4.951150e+00 1.306570e+01
      vertex 2.449417e+00 4.148849e+00 1.306686e+01
      vertex 3.086048e+00 4.148151e+00 1.306721e+01
    endloop
  endfacet
  facet normal -5.513025e-04 1.444395e-03 9.999988e-01
    outer loop
      vertex 2.448538e+00 4.951150e+00 1.306570e+01
      vertex 3.086048e+00 4.148151e+00 1.306721e+01
      vertex 3.085169e+00 4.950450e+00 1.306605e+01
    endloop
  endfacet
  facet normal -5.632866e-04 1.444382e-03 9.999988e-01
    outer loop
      vertex 3.085169e+00 4.950450e+00 1.306605e+01
      vertex 3.086048e+00 4.148151e+00 1.306721e+01
      vertex 3.722675e+00 4.147451e+00 1.306757e+01
    endloop
  endfacet
  facet normal -5.512920e-04 1.453905e-03 9.999988e-01
    outer loop
      vertex 3.085169e+00 4.950450e+00 1.306605e+01
      vertex 3.722675e+00 4.147451e+00 1.306757e+01
      vertex 3.721798e+00 4.949752e+00 1.306640e+01
    endloop
  endfacet
  facet normal 9.999992e-01 1.093976e-03 5.497247e-04
    outer loop
      vertex 3.721798e+00 4.949752e+00 1.306640e+01
      vertex 3.722675e+00 4.147451e+00 1.306757e+01
      vertex 3.723228e+00 4.146004e+00 1.206426e+01
    endloop
  endfacet
  facet normal 9.999992e-01 1.093976e-03 5.497247e-04
    outer loop
      vertex 3.721798e+00 4.949752e+00 1.306640e+01
      vertex 3.723228e+00 4.146004e+00 1.206426e+01
      vertex 3.722351e+00 4.948305e+00 1.206311e+01
    endloop
  endfacet
  facet normal -5.513025e-04 1.444395e-03 9.999988e-01
    outer loop
      vertex 3.722351e+00 4.948305e+00 1.206311e+01
      vertex 3.723228e+00 4.146004e+00 1.206426e+01
      vertex 4.359859e+00 4.145304e+00 1.206462e+01
    endloop
  endfacet
  facet normal -5.513025e-04 1.444395e-03 9.999988e-01
    outer loop
      vertex 3.722351e+00 4.948305e+00 1.206311e+01
      vertex 4.359859e+00 4.145304e+00 1.206462e+01
      vertex 4.358982e+00 4.947605e+00 1.206346e+01
    endloop
  endfacet
  facet normal -9.999992e-01 -1.093976e-03 -5.497226e-04
    outer loop
      vertex 4.358982e+00 4.947605e+00 1.206346e+01
      vertex 4.359859e+00 4.145304e+00 1.206462e+01
      vertex 4.359306e+00 4.146754e+00 1.306792e+01
    endloop
  endfacet
  facet normal -9.999992e-01 -1.093976e-03 -5.497226e-04
    outer loop
      vertex 4.358982e+00 4.947605e+00 1.206346e+01
      vertex 4.359306e+00 4.146754e+00 1.306792e+01
      vertex 4.358429e+00 4.949054e+00 1.306676e+01
    endloop
  endfacet
  facet normal -5.513025e-04 1.444395e-03 9.999988e-01
    outer loop
      vertex 4.358429e+00 4.949054e+00 1.306676e+01
      vertex 4.359306e+00 4.146754e+00 1.306792e+01
      vertex 4.995937e+00 4.146054e+00 1.306827e+01
    endloop
  endfacet
  facet normal -5.513025e-04 1.444395e-03 9.999988e-01
    outer loop
      vertex 4.358429e+00 4.949054e+00 1.306676e+01
      vertex 4.995937e+00 4.146054e+00 1.306827e+01
      vertex 4.995060e+00 4.948356e+00 1.306711e+01
    endloop
  endfacet
  facet normal 9.999992e-01 1.093973e-03 5.497246e-04
    outer loop
      vertex 4.995060e+00 4.948356e+00 1.306711e+01
      vertex 4.995937e+00 4.146054e+00 1.306827e+01
      vertex 4.996490e+00 4.144607e+00 1.206497e+01
    endloop
  endfacet
  facet normal 9.999992e-01 1.096350e-03 5.478181e-04
    outer loop
      vertex 4.995060e+00 4.948356e+00 1.306711e+01
      vertex 4.996490e+00 4.144607e+00 1.206497e+01
      vertex 4.995611e+00 4.946907e+00 1.206381e+01
    endloop
  endfacet
  facet normal -5.513025e-04 1.444395e-03 9.999988e-01
    outer loop
      vertex 4.995611e+00 4.946907e+00 1.206381e+01
      vertex 4.996490e+00 4.144607e+00 1.206497e+01
      vertex 5.633121e+00 4.143909e+00 1.206532e+01
    endloop
  endfacet
  facet normal -5.513025e-04 1.444395e-03 9.999988e-01
    outer loop
      vertex 4.995611e+00 4.946907e+00 1.206381e+01
      vertex 5.633121e+00 4.143909e+00 1.206532e+01
      vertex 5.632242e+00 4.946209e+00 1.206416e+01
    endloop
  endfacet
  facet normal -5.632865e-04 1.444382e-03 9.999988e-01
    outer loop
      vertex 5.632242e+00 4.946209e+00 1.206416e+01
      vertex 5.633121e+00 4.143909e+00 1.206532e+01
      vertex 6.269750e+00 4.143209e+00 1.206568e+01
    endloop
  endfacet
  facet normal -5.632865e-04 1.444382e-03 9.999988e-01
    outer loop
      vertex 5.632242e+00 4.946209e+00 1.206416e+01
      vertex 6.269750e+00 4.143209e+00 1.206568e+01
      vertex 6.268873e+00 4.945510e+00 1.206452e+01
    endloop
  endfacet
  facet normal -5.513025e-04 1.444395e-03 9.999988e-01
    outer loop
      vertex 6.268873e+00 4.945510e+00 1.206452e+01
      vertex 6.269750e+00 4.143209e+00 1.206568e+01
      vertex 6.906379e+00 4.142511e+00 1.206603e+01
    endloop
  endfacet
  facet normal -5.513025e-04 1.444395e-03 9.999988e-01
    outer loop
      vertex 6.268873e+00 4.945510e+00 1.206452e+01
      vertex 6.906379e+00 4.142511e+00 1.206603e+01
      vertex 6.905502e+00 4.944812e+00 1.206487e+01
    endloop
  endfacet
  facet normal -9.999992e-01 -1.093979e-03 -5.516216e-04
    outer loop
      vertex 6.905502e+00 4.944812e+00 1.206487e+01
      vertex 6.906379e+00 4.142511e+00 1.206603e+01
      vertex 6.905824e+00 4.143962e+00 1.306932e+01
    endloop
  endfacet
  facet normal -9.999992e-01 -1.093979e-03 -5.516216e-04
    outer loop
      vertex 6.905502e+00 4.944812e+00 1.206487e+01
      vertex 6.905824e+00 4.143962e+00 1.306932e+01
      vertex 6.904947e+00 4.946263e+00 1.306816e+01
    endloop
  endfacet
  facet normal -5.513025e-04 1.444395e-03 9.999988e-01
    outer loop
      vertex 6.904947e+00 4.946263e+00 1.306816e+01
      vertex 6.905824e+00 4.143962e+00 1.306932e+01
      vertex 7.542455e+00 4.143263e+00 1.306967e+01
    endloop
  endfacet
  facet normal -5.513025e-04 1.444395e-03 9.999988e-01
    outer loop
      vertex 6.904947e+00 4.946263e+00 1.306816e+01
      vertex 7.542455e+00 4.143263e+00 1.306967e+01
      vertex 7.541576e+00 4.945563e+00 1.306851e+01
    endloop
  endfacet
  facet normal 9.999992e-01 1.096356e-03 5.516182e-04
    outer loop
      vertex 7.541576e+00 4.945563e+00 1.306851e+01
      vertex 7.542455e+00 4.143263e+00 1.306967e+01
      vertex 7.543010e+00 4.141812e+00 1.206638e+01
    endloop
  endfacet
  facet normal 9.999992e-01 1.093981e-03 5.535227e-04
    outer loop
      vertex 7.541576e+00 4.945563e+00 1.306851e+01
      vertex 7.543010e+00 4.141812e+00 1.206638e+01
      vertex 7.542133e+00 4.944112e+00 1.206522e+01
    endloop
  endfacet
  facet normal -5.513025e-04 1.444395e-03 9.999988e-01
    outer loop
      vertex 7.542133e+00 4.944112e+00 1.206522e+01
      vertex 7.543010e+00 4.141812e+00 1.206638e+01
      vertex 8.179641e+00 4.141114e+00 1.206674e+01
    endloop
  endfacet
  facet normal -5.513025e-04 1.444395e-03 9.999988e-01
    outer loop
      vertex 7.542133e+00 4.944112e+00 1.206522e+01
      vertex 8.179641e+00 4.141114e+00 1.206674e+01
      vertex 8.178764e+00 4.943414e+00 1.206558e+01
    endloop
  endfacet
  facet normal -9.999992e-01 -1.093979e-03 -5.516216e-04
    outer loop
      vertex 8.178764e+00 4.943414e+00 1.206558e+01
      vertex 8.179641e+00 4.141114e+00 1.206674e+01
      vertex 8.179086e+00 4.142565e+00 1.307002e+01
    endloop
  endfacet
  facet normal -9.999992e-01 -1.096359e-03 -5.535193e-04
    outer loop
      vertex 8.178764e+00 4.943414e+00 1.206558e+01
      vertex 8.179086e+00 4.142565e+00 1.307002e+01
      vertex 8.178207e+00 4.944865e+00 1.306886e+01
    endloop
  endfacet
  facet normal -5.513025e-04 1.444395e-03 9.999988e-01
    outer loop
      vertex 8.178207e+00 4.944865e+00 1.306886e+01
      vertex 8.179086e+00 4.142565e+00 1.307002e+01
      vertex 8.815715e+00 4.141867e+00 1.307038e+01
    endloop
  endfacet
  facet normal -5.513025e-04 1.444395e-03 9.999988e-01
    outer loop
      vertex 8.178207e+00 4.944865e+00 1.306886e+01
      vertex 8.815715e+00 4.141867e+00 1.307038e+01
      vertex 8.814838e+00 4.944166e+00 1.306922e+01
    endloop
  endfacet
  facet normal -5.513025e-04 1.444395e-03 9.999988e-01
    outer loop
      vertex 1.811030e+00 5.754148e+00 1.306418e+01
      vertex 1.811907e+00 4.951847e+00 1.306534e+01
      vertex 2.448538e+00 4.951150e+00 1.306570e+01
    endloop
  endfacet
  facet normal -5.513025e-04 1.444395e-03 9.999988e-01
    outer loop
      vertex 1.811030e+00 5.754148e+00 1.306418e+01
      vertex 2.448538e+00 4.951150e+00 1.306570e+01
      vertex 2.447661e+00 5.753450e+00 1.306454e+01
    endloop
  endfacet
  facet normal 9.999992e-01 1.093976e-03 5.497247e-04
    outer loop
      vertex 2.447661e+00 5.753450e+00 1.306454e+01
      vertex 2.448538e+00 4.951150e+00 1.306570e+01
      vertex 2.449091e+00 4.949702e+00 1.206240e+01
    endloop
  endfacet
  facet normal 9.999993e-01 1.096353e-03 5.478181e-04
    outer loop
      vertex 2.447661e+00 5.753450e+00 1.306454e+01
      vertex 2.449091e+00 4.949702e+00 1.206240e+01
      vertex 2.448212e+00 5.752001e+00 1.206124e+01
    endloop
  endfacet
  facet normal -5.513025e-04 1.444395e-03 9.999988e-01
    outer loop
      vertex 2.448212e+00 5.752001e+00 1.206124e+01
      vertex 2.449091e+00 4.949702e+00 1.206240e+01
      vertex 3.085722e+00 4.949003e+00 1.206275e+01
    endloop
  endfacet
  facet normal -5.513025e-04 1.444395e-03 9.999988e-01
    outer loop
      vertex 2.448212e+00 5.752001e+00 1.206124e+01
      vertex 3.085722e+00 4.949003e+00 1.206275e+01
      vertex 3.084843e+00 5.751303e+00 1.206159e+01
    endloop
  endfacet
  facet normal -5.513025e-04 1.444395e-03 9.999988e-01
    outer loop
      vertex 3.084843e+00 5.751303e+00 1.206159e+01
      vertex 3.085722e+00 4.949003e+00 1.206275e+01
      vertex 3.722351e+00 4.948305e+00 1.206311e+01
    endloop
  endfacet
  facet normal -5.513025e-04 1.444395e-03 9.999988e-01
    outer loop
      vertex 3.084843e+00 5.751303e+00 1.206159e+01
      vertex 3.722351e+00 4.948305e+00 1.206311e+01
      vertex 3.721472e+00 5.750605e+00 1.206195e+01
    endloop
  endfacet
  facet normal -5.513025e-04 1.444395e-03 9.999988e-01
    outer loop
      vertex 3.721472e+00 5.750605e+00 1.206195e+01
      vertex 3.722351e+00 4.948305e+00 1.206311e+01
      vertex 4.358982e+00 4.947605e+00 1.206346e+01
    endloop
  endfacet
  facet normal -5.513025e-04 1.444395e-03 9.999988e-01
    outer loop
      vertex 3.721472e+00 5.750605e+00 1.206195e+01
      vertex 4.358982e+00 4.947605e+00 1.206346e+01
      vertex 4.358103e+00 5.749906e+00 1.206230e+01
    endloop
  endfacet
  facet normal -9.999992e-01 -1.096353e-03 -5.497191e-04
    outer loop
      vertex 4.358103e+00 5.749906e+00 1.206230e+01
      vertex 4.358982e+00 4.947605e+00 1.206346e+01
      vertex 4.358429e+00 4.949054e+00 1.306676e+01
    endloop
  endfacet
  facet normal -9.999992e-01 -1.093973e-03 -5.478215e-04
    outer loop
      vertex 4.358103e+00 5.749906e+00 1.206230e+01
      vertex 4.358429e+00 4.949054e+00 1.306676e+01
      vertex 4.357552e+00 5.751355e+00 1.306559e+01
    endloop
  endfacet
  facet normal -5.512920e-04 1.453905e-03 9.999988e-01
    outer loop
      vertex 4.357552e+00 5.751355e+00 1.306559e+01
      vertex 4.358429e+00 4.949054e+00 1.306676e+01
      vertex 4.995060e+00 4.948356e+00 1.306711e+01
    endloop
  endfacet
  facet normal -5.512920e-04 1.453905e-03 9.999988e-01
    outer loop
      vertex 4.357552e+00 5.751355e+00 1.306559e+01
      vertex 4.995060e+00 4.948356e+00 1.306711e+01
      vertex 4.994183e+00 5.750657e+00 1.306594e+01
    endloop
  endfacet
  facet normal 9.999992e-01 1.093973e-03 5.478215e-04
    outer loop
      vertex 4.994183e+00 5.750657e+00 1.306594e+01
      vertex 4.995060e+00 4.948356e+00 1.306711e+01
      vertex 4.995611e+00 4.946907e+00 1.206381e+01
    endloop
  endfacet
  facet normal 9.999992e-01 1.093973e-03 5.478215e-04
    outer loop
      vertex 4.994183e+00 5.750657e+00 1.306594e+01
      vertex 4.995611e+00 4.946907e+00 1.206381e+01
      vertex 4.994734e+00 5.749208e+00 1.206265e+01
    endloop
  endfacet
  facet normal -5.513025e-04 1.444395e-03 9.999988e-01
    outer loop
      vertex 4.994734e+00 5.749208e+00 1.206265e+01
      vertex 4.995611e+00 4.946907e+00 1.206381e+01
      vertex 5.632242e+00 4.946209e+00 1.206416e+01
    endloop
  endfacet
  facet normal -5.513025e-04 1.444395e-03 9.999988e-01
    outer loop
      vertex 4.994734e+00 5.749208e+00 1.206265e+01
      vertex 5.632242e+00 4.946209e+00 1.206416e+01
      vertex 5.631365e+00 5.748510e+00 1.206300e+01
    endloop
  endfacet
  facet normal -5.632865e-04 1.444382e-03 9.999988e-01
    outer loop
      vertex 5.631365e+00 5.748510e+00 1.206300e+01
      vertex 5.632242e+00 4.946209e+00 1.206416e+01
      vertex 6.268873e+00 4.945510e+00 1.206452e+01
    endloop
  endfacet
  facet normal -5.512920e-04 1.453905e-03 9.999988e-01
    outer loop
      vertex 5.631365e+00 5.748510e+00 1.206300e+01
      vertex 6.268873e+00 4.945510e+00 1.206452e+01
      vertex 6.267994e+00 5.747810e+00 1.206335e+01
    endloop
  endfacet
  facet normal -5.512920e-04 1.453905e-03 9.999988e-01
    outer loop
      vertex 6.267994e+00 5.747810e+00 1.206335e+01
      vertex 6.268873e+00 4.945510e+00 1.206452e+01
      vertex 6.905502e+00 4.944812e+00 1.206487e+01
    endloop
  endfacet
  facet normal -5.512920e-04 1.453905e-03 9.999988e-01
    outer loop
      vertex 6.267994e+00 5.747810e+00 1.206335e+01
      vertex 6.905502e+00 4.944812e+00 1.206487e+01
      vertex 6.904625e+00 5.747112e+00 1.206371e+01
    endloop
  endfacet
  facet normal -9.999992e-01 -1.093979e-03 -5.516216e-04
    outer loop
      vertex 6.904625e+00 5.747112e+00 1.206371e+01
      vertex 6.905502e+00 4.944812e+00 1.206487e+01
      vertex 6.904947e+00 4.946263e+00 1.306816e+01
    endloop
  endfacet
  facet normal -9.999992e-01 -1.096359e-03 -5.535192e-04
    outer loop
      vertex 6.904625e+00 5.747112e+00 1.206371e+01
      vertex 6.904947e+00 4.946263e+00 1.306816e+01
      vertex 6.904068e+00 5.748563e+00 1.306700e+01
    endloop
  endfacet
  facet normal -5.513025e-04 1.444395e-03 9.999988e-01
    outer loop
      vertex 6.904068e+00 5.748563e+00 1.306700e+01
      vertex 6.904947e+00 4.946263e+00 1.306816e+01
      vertex 7.541576e+00 4.945563e+00 1.306851e+01
    endloop
  endfacet
  facet normal -5.513025e-04 1.444395e-03 9.999988e-01
    outer loop
      vertex 6.904068e+00 5.748563e+00 1.306700e+01
      vertex 7.541576e+00 4.945563e+00 1.306851e+01
      vertex 7.540699e+00 5.747864e+00 1.306735e+01
    endloop
  endfacet
  facet normal 9.999992e-01 1.093981e-03 5.535227e-04
    outer loop
      vertex 7.540699e+00 5.747864e+00 1.306735e+01
      vertex 7.541576e+00 4.945563e+00 1.306851e+01
      vertex 7.542133e+00 4.944112e+00 1.206522e+01
    endloop
  endfacet
  facet normal 9.999992e-01 1.093979e-03 5.535248e-04
    outer loop
      vertex 7.540699e+00 5.747864e+00 1.306735e+01
      vertex 7.542133e+00 4.944112e+00 1.206522e+01
      vertex 7.541256e+00 5.746415e+00 1.206407e+01
    endloop
  endfacet
  facet normal -5.513025e-04 1.444395e-03 9.999988e-01
    outer loop
      vertex 7.541256e+00 5.746415e+00 1.206407e+01
      vertex 7.542133e+00 4.944112e+00 1.206522e+01
      vertex 8.178764e+00 4.943414e+00 1.206558e+01
    endloop
  endfacet
  facet normal -5.513025e-04 1.444395e-03 9.999988e-01
    outer loop
      vertex 7.541256e+00 5.746415e+00 1.206407e+01
      vertex 8.178764e+00 4.943414e+00 1.206558e+01
      vertex 8.177887e+00 5.745715e+00 1.206442e+01
    endloop
  endfacet
  facet normal -9.999992e-01 -1.093981e-03 -5.535227e-04
    outer loop
      vertex 8.177887e+00 5.745715e+00 1.206442e+01
      vertex 8.178764e+00 4.943414e+00 1.206558e+01
      vertex 8.178207e+00 4.944865e+00 1.306886e+01
    endloop
  endfacet
  facet normal -9.999992e-01 -1.093981e-03 -5.535227e-04
    outer loop
      vertex 8.177887e+00 5.745715e+00 1.206442e+01
      vertex 8.178207e+00 4.944865e+00 1.306886e+01
      vertex 8.177330e+00 5.747166e+00 1.306770e+01
    endloop
  endfacet
  facet normal -5.513025e-04 1.444395e-03 9.999988e-01
    outer loop
      vertex 8.177330e+00 5.747166e+00 1.306770e+01
      vertex 8.178207e+00 4.944865e+00 1.306886e+01
      vertex 8.814838e+00 4.944166e+00 1.306922e+01
    endloop
  endfacet
  facet normal -5.513025e-04 1.444395e-03 9.999988e-01
    outer loop
      vertex 8.177330e+00 5.747166e+00 1.306770e+01
      vertex 8.814838e+00 4.944166e+00 1.306922e+01
      vertex 8.813959e+00 5.746468e+00 1.306806e+01
    endloop
  endfacet
  facet normal -5.513025e-04 1.444395e-03 9.999988e-01
    outer loop
      vertex 1.810153e+00 6.556449e+00 1.306303e+01
      vertex 1.811030e+00 5.754148e+00 1.306418e+01
      vertex 2.447661e+00 5.753450e+00 1.306454e+01
    endloop
  endfacet
  facet normal -5.513025e-04 1.444395e-03 9.999988e-01
    outer loop
      vertex 1.810153e+00 6.556449e+00 1.306303e+01
      vertex 2.447661e+00 5.753450e+00 1.306454e+01
      vertex 2.446782e+00 6.555751e+00 1.306338e+01
    endloop
  endfacet
  facet normal -5.513025e-04 1.444395e-03 9.999988e-01
    outer loop
      vertex 2.446782e+00 6.555751e+00 1.306338e+01
      vertex 2.447661e+00 5.753450e+00 1.306454e+01
      vertex 3.084290e+00 5.752752e+00 1.306489e+01
    endloop
  endfacet
  facet normal -5.513025e-04 1.444395e-03 9.999988e-01
    outer loop
      vertex 2.446782e+00 6.555751e+00 1.306338e+01
      vertex 3.084290e+00 5.752752e+00 1.306489e+01
      vertex 3.083411e+00 6.555053e+00 1.306373e+01
    endloop
  endfacet
  facet normal -5.513025e-04 1.444395e-03 9.999988e-01
    outer loop
      vertex 3.083411e+00 6.555053e+00 1.306373e+01
      vertex 3.084290e+00 5.752752e+00 1.306489e+01
      vertex 3.720921e+00 5.752055e+00 1.306524e+01
    endloop
  endfacet
  facet normal -5.513025e-04 1.444395e-03 9.999988e-01
    outer loop
      vertex 3.083411e+00 6.555053e+00 1.306373e+01
      vertex 3.720921e+00 5.752055e+00 1.306524e+01
      vertex 3.720042e+00 6.554353e+00 1.306408e+01
    endloop
  endfacet
  facet normal 9.999993e-01 1.096353e-03 5.478181e-04
    outer loop
      vertex 3.720042e+00 6.554353e+00 1.306408e+01
      vertex 3.720921e+00 5.752055e+00 1.306524e+01
      vertex 3.721472e+00 5.750605e+00 1.206195e+01
    endloop
  endfacet
  facet normal 9.999992e-01 1.093976e-03 5.497247e-04
    outer loop
      vertex 3.720042e+00 6.554353e+00 1.306408e+01
      vertex 3.721472e+00 5.750605e+00 1.206195e+01
      vertex 3.720595e+00 6.552906e+00 1.206079e+01
    endloop
  endfacet
  facet normal -5.513025e-04 1.444395e-03 9.999988e-01
    outer loop
      vertex 3.720595e+00 6.552906e+00 1.206079e+01
      vertex 3.721472e+00 5.750605e+00 1.206195e+01
      vertex 4.358103e+00 5.749906e+00 1.206230e+01
    endloop
  endfacet
  facet normal -5.513025e-04 1.444395e-03 9.999988e-01
    outer loop
      vertex 3.720595e+00 6.552906e+00 1.206079e+01
      vertex 4.358103e+00 5.749906e+00 1.206230e+01
      vertex 4.357226e+00 6.552206e+00 1.206114e+01
    endloop
  endfacet
  facet normal -9.999992e-01 -1.093973e-03 -5.478215e-04
    outer loop
      vertex 4.357226e+00 6.552206e+00 1.206114e+01
      vertex 4.358103e+00 5.749906e+00 1.206230e+01
      vertex 4.357552e+00 5.751355e+00 1.306559e+01
    endloop
  endfacet
  facet normal -9.999992e-01 -1.096353e-03 -5.497191e-04
    outer loop
      vertex 4.357226e+00 6.552206e+00 1.206114e+01
      vertex 4.357552e+00 5.751355e+00 1.306559e+01
      vertex 4.356673e+00 6.553655e+00 1.306444e+01
    endloop
  endfacet
  facet normal -5.513129e-04 1.434886e-03 9.999988e-01
    outer loop
      vertex 4.356673e+00 6.553655e+00 1.306444e+01
      vertex 4.357552e+00 5.751355e+00 1.306559e+01
      vertex 4.994183e+00 5.750657e+00 1.306594e+01
    endloop
  endfacet
  facet normal -5.513129e-04 1.434886e-03 9.999988e-01
    outer loop
      vertex 4.356673e+00 6.553655e+00 1.306444e+01
      vertex 4.994183e+00 5.750657e+00 1.306594e+01
      vertex 4.993304e+00 6.552958e+00 1.306479e+01
    endloop
  endfacet
  facet normal 9.999992e-01 1.096350e-03 5.478181e-04
    outer loop
      vertex 4.993304e+00 6.552958e+00 1.306479e+01
      vertex 4.994183e+00 5.750657e+00 1.306594e+01
      vertex 4.994734e+00 5.749208e+00 1.206265e+01
    endloop
  endfacet
  facet normal 9.999992e-01 1.096350e-03 5.478181e-04
    outer loop
      vertex 4.993304e+00 6.552958e+00 1.306479e+01
      vertex 4.994734e+00 5.749208e+00 1.206265e+01
      vertex 4.993855e+00 6.551508e+00 1.206149e+01
    endloop
  endfacet
  facet normal -5.513025e-04 1.444395e-03 9.999988e-01
    outer loop
      vertex 4.993855e+00 6.551508e+00 1.206149e+01
      vertex 4.994734e+00 5.749208e+00 1.206265e+01
      vertex 5.631365e+00 5.748510e+00 1.206300e+01
    endloop
  endfacet
  facet normal -5.513025e-04 1.444395e-03 9.999988e-01
    outer loop
      vertex 4.993855e+00 6.551508e+00 1.206149e+01
      vertex 5.631365e+00 5.748510e+00 1.206300e+01
      vertex 5.630486e+00 6.550811e+00 1.206184e+01
    endloop
  endfacet
  facet normal -5.513025e-04 1.444395e-03 9.999988e-01
    outer loop
      vertex 5.630486e+00 6.550811e+00 1.206184e+01
      vertex 5.631365e+00 5.748510e+00 1.206300e+01
      vertex 6.267994e+00 5.747810e+00 1.206335e+01
    endloop
  endfacet
  facet normal -5.632970e-04 1.434873e-03 9.999988e-01
    outer loop
      vertex 5.630486e+00 6.550811e+00 1.206184e+01
      vertex 6.267994e+00 5.747810e+00 1.206335e+01
      vertex 6.267115e+00 6.550111e+00 1.206220e+01
    endloop
  endfacet
  facet normal -5.513129e-04 1.434886e-03 9.999988e-01
    outer loop
      vertex 6.267115e+00 6.550111e+00 1.206220e+01
      vertex 6.267994e+00 5.747810e+00 1.206335e+01
      vertex 6.904625e+00 5.747112e+00 1.206371e+01
    endloop
  endfacet
  facet normal -5.513129e-04 1.434886e-03 9.999988e-01
    outer loop
      vertex 6.267115e+00 6.550111e+00 1.206220e+01
      vertex 6.904625e+00 5.747112e+00 1.206371e+01
      vertex 6.903746e+00 6.549413e+00 1.206255e+01
    endloop
  endfacet
  facet normal -9.999992e-01 -1.096359e-03 -5.535192e-04
    outer loop
      vertex 6.903746e+00 6.549413e+00 1.206255e+01
      vertex 6.904625e+00 5.747112e+00 1.206371e+01
      vertex 6.904068e+00 5.748563e+00 1.306700e+01
    endloop
  endfacet
  facet normal -9.999992e-01 -1.093979e-03 -5.516216e-04
    outer loop
      vertex 6.903746e+00 6.549413e+00 1.206255e+01
      vertex 6.904068e+00 5.748563e+00 1.306700e+01
      vertex 6.903191e+00 6.550864e+00 1.306584e+01
    endloop
  endfacet
  facet normal -5.513025e-04 1.444395e-03 9.999988e-01
    outer loop
      vertex 6.903191e+00 6.550864e+00 1.306584e+01
      vertex 6.904068e+00 5.748563e+00 1.306700e+01
      vertex 7.540699e+00 5.747864e+00 1.306735e+01
    endloop
  endfacet
  facet normal -5.513025e-04 1.444395e-03 9.999988e-01
    outer loop
      vertex 6.903191e+00 6.550864e+00 1.306584e+01
      vertex 7.540699e+00 5.747864e+00 1.306735e+01
      vertex 7.539822e+00 6.550166e+00 1.306619e+01
    endloop
  endfacet
  facet normal -5.513025e-04 1.444395e-03 9.999988e-01
    outer loop
      vertex 7.539822e+00 6.550166e+00 1.306619e+01
      vertex 7.540699e+00 5.747864e+00 1.306735e+01
      vertex 8.177330e+00 5.747166e+00 1.306770e+01
    endloop
  endfacet
  facet normal -5.513025e-04 1.444395e-03 9.999988e-01
    outer loop
      vertex 7.539822e+00 6.550166e+00 1.306619e+01
      vertex 8.177330e+00 5.747166e+00 1.306770e+01
      vertex 8.176451e+00 6.549466e+00 1.306655e+01
    endloop
  endfacet
  facet normal -5.513025e-04 1.444395e-03 9.999988e-01
    outer loop
      vertex 8.176451e+00 6.549466e+00 1.306655e+01
      vertex 8.177330e+00 5.747166e+00 1.306770e+01
      vertex 8.813959e+00 5.746468e+00 1.306806e+01
    endloop
  endfacet
  facet normal -5.513025e-04 1.444395e-03 9.999988e-01
    outer loop
      vertex 8.176451e+00 6.549466e+00 1.306655e+01
      vertex 8.813959e+00 5.746468e+00 1.306806e+01
      vertex 8.813082e+00 6.548769e+00 1.306690e+01
    endloop
  endfacet
  facet normal -1.096935e-03 -9.999984e-01 1.443792e-03
    outer loop
      vertex 1.815093e+00 2.543497e+00 1.206553e+01
      vertex 2.451724e+00 2.542799e+00 1.206588e+01
      vertex 2.451173e+00 2.544248e+00 1.306917e+01
    endloop
  endfacet
  facet normal -1.096935e-03 -9.999984e-01 1.443792e-03
    outer loop
      vertex 1.815093e+00 2.543497e+00 1.206553e+01
      vertex 2.451173e+00 2.544248e+00 1.306917e+01
      vertex 1.814542e+00 2.544946e+00 1.306882e+01
    endloop
  endfacet
  facet normal 1.096935e-03 9.999984e-01 -1.443792e-03
    outer loop
      vertex 1.813663e+00 3.347246e+00 1.306766e+01
      vertex 2.450294e+00 3.346548e+00 1.306801e+01
      vertex 2.450845e+00 3.345099e+00 1.206472e+01
    endloop
  endfacet
  facet normal 1.099933e-03 9.999983e-01 -1.441887e-03
    outer loop
      vertex 1.813663e+00 3.347246e+00 1.306766e+01
      vertex 2.450845e+00 3.345099e+00 1.206472e+01
      vertex 1.814216e+00 3.345799e+00 1.206437e+01
    endloop
  endfacet
  facet normal -1.099931e-03 -9.999983e-01 1.443790e-03
    outer loop
      vertex 1.813337e+00 4.148100e+00 1.206321e+01
      vertex 2.449968e+00 4.147400e+00 1.206356e+01
      vertex 2.449417e+00 4.148849e+00 1.306686e+01
    endloop
  endfacet
  facet normal -1.096933e-03 -9.999984e-01 1.441891e-03
    outer loop
      vertex 1.813337e+00 4.148100e+00 1.206321e+01
      vertex 2.449417e+00 4.148849e+00 1.306686e+01
      vertex 1.812786e+00 4.149547e+00 1.306650e+01
    endloop
  endfacet
  facet normal 1.096938e-03 9.999984e-01 -1.443790e-03
    outer loop
      vertex 1.810153e+00 6.556449e+00 1.306303e+01
      vertex 2.446782e+00 6.555751e+00 1.306338e+01
      vertex 2.447335e+00 6.554302e+00 1.206008e+01
    endloop
  endfacet
  facet normal 1.099930e-03 9.999983e-01 -1.441889e-03
    outer loop
      vertex 1.810153e+00 6.556449e+00 1.306303e+01
      vertex 2.447335e+00 6.554302e+00 1.206008e+01
      vertex 1.810704e+00 6.555001e+00 1.205973e+01
    endloop
  endfacet
  facet normal -1.096934e-03 -9.999984e-01 1.441889e-03
    outer loop
      vertex 2.451724e+00 2.542799e+00 1.206588e+01
      vertex 3.088355e+00 2.542101e+00 1.206623e+01
      vertex 3.087802e+00 2.543548e+00 1.306953e+01
    endloop
  endfacet
  facet normal -1.099934e-03 -9.999983e-01 1.443790e-03
    outer loop
      vertex 2.451724e+00 2.542799e+00 1.206588e+01
      vertex 3.087802e+00 2.543548e+00 1.306953e+01
      vertex 2.451173e+00 2.544248e+00 1.306917e+01
    endloop
  endfacet
  facet normal 1.099930e-03 9.999983e-01 -1.441889e-03
    outer loop
      vertex 2.450294e+00 3.346548e+00 1.306801e+01
      vertex 3.086925e+00 3.345849e+00 1.306837e+01
      vertex 3.087476e+00 3.344402e+00 1.206507e+01
    endloop
  endfacet
  facet normal 1.096935e-03 9.999984e-01 -1.443792e-03
    outer loop
      vertex 2.450294e+00 3.346548e+00 1.306801e+01
      vertex 3.087476e+00 3.344402e+00 1.206507e+01
      vertex 2.450845e+00 3.345099e+00 1.206472e+01
    endloop
  endfacet
  facet normal -1.096935e-03 -9.999984e-01 1.443792e-03
    outer loop
      vertex 2.449968e+00 4.147400e+00 1.206356e+01
      vertex 3.086599e+00 4.146702e+00 1.206391e+01
      vertex 3.086048e+00 4.148151e+00 1.306721e+01
    endloop
  endfacet
  facet normal -1.096935e-03 -9.999984e-01 1.443792e-03
    outer loop
      vertex 2.449968e+00 4.147400e+00 1.206356e+01
      vertex 3.086048e+00 4.148151e+00 1.306721e+01
      vertex 2.449417e+00 4.148849e+00 1.306686e+01
    endloop
  endfacet
  facet normal 1.099930e-03 9.999983e-01 -1.441887e-03
    outer loop
      vertex 2.448538e+00 4.951150e+00 1.306570e+01
      vertex 3.085169e+00 4.950450e+00 1.306605e+01
      vertex 3.085722e+00 4.949003e+00 1.206275e+01
    endloop
  endfacet
  facet normal 1.099930e-03 9.999983e-01 -1.441887e-03
    outer loop
      vertex 2.448538e+00 4.951150e+00 1.306570e+01
      vertex 3.085722e+00 4.949003e+00 1.206275e+01
      vertex 2.449091e+00 4.949702e+00 1.206240e+01
    endloop
  endfacet
  facet normal -1.096935e-03 -9.999984e-01 1.443790e-03
    outer loop
      vertex 2.448212e+00 5.752001e+00 1.206124e+01
      vertex 3.084843e+00 5.751303e+00 1.206159e+01
      vertex 3.084290e+00 5.752752e+00 1.306489e+01
    endloop
  endfacet
  facet normal -1.096938e-03 -9.999984e-01 1.443792e-03
    outer loop
      vertex 2.448212e+00 5.752001e+00 1.206124e+01
      vertex 3.084290e+00 5.752752e+00 1.306489e+01
      vertex 2.447661e+00 5.753450e+00 1.306454e+01
    endloop
  endfacet
  facet normal 1.096938e-03 9.999984e-01 -1.443790e-03
    outer loop
      vertex 2.446782e+00 6.555751e+00 1.306338e+01
      vertex 3.083411e+00 6.555053e+00 1.306373e+01
      vertex 3.083964e+00 6.553604e+00 1.206043e+01
    endloop
  endfacet
  facet normal 1.096938e-03 9.999984e-01 -1.443790e-03
    outer loop
      vertex 2.446782e+00 6.555751e+00 1.306338e+01
      vertex 3.083964e+00 6.553604e+00 1.206043e+01
      vertex 2.447335e+00 6.554302e+00 1.206008e+01
    endloop
  endfacet
  facet normal -1.096934e-03 -9.999984e-01 1.441889e-03
    outer loop
      vertex 3.088355e+00 2.542101e+00 1.206623e+01
      vertex 3.724986e+00 2.541403e+00 1.206658e+01
      vertex 3.724433e+00 2.542850e+00 1.306989e+01
    endloop
  endfacet
  facet normal -1.096934e-03 -9.999984e-01 1.441889e-03
    outer loop
      vertex 3.088355e+00 2.542101e+00 1.206623e+01
      vertex 3.724433e+00 2.542850e+00 1.306989e+01
      vertex 3.087802e+00 2.543548e+00 1.306953e+01
    endloop
  endfacet
  facet normal 1.096937e-03 9.999984e-01 -1.441889e-03
    outer loop
      vertex 3.085169e+00 4.950450e+00 1.306605e+01
      vertex 3.721798e+00 4.949752e+00 1.306640e+01
      vertex 3.722351e+00 4.948305e+00 1.206311e+01
    endloop
  endfacet
  facet normal 1.096937e-03 9.999984e-01 -1.441889e-03
    outer loop
      vertex 3.085169e+00 4.950450e+00 1.306605e+01
      vertex 3.722351e+00 4.948305e+00 1.206311e+01
      vertex 3.085722e+00 4.949003e+00 1.206275e+01
    endloop
  endfacet
  facet normal -1.096938e-03 -9.999984e-01 1.443792e-03
    outer loop
      vertex 3.084843e+00 5.751303e+00 1.206159e+01
      vertex 3.721472e+00 5.750605e+00 1.206195e+01
      vertex 3.720921e+00 5.752055e+00 1.306524e+01
    endloop
  endfacet
  facet normal -1.096935e-03 -9.999984e-01 1.443790e-03
    outer loop
      vertex 3.084843e+00 5.751303e+00 1.206159e+01
      vertex 3.720921e+00 5.752055e+00 1.306524e+01
      vertex 3.084290e+00 5.752752e+00 1.306489e+01
    endloop
  endfacet
  facet normal 1.099930e-03 9.999983e-01 -1.441887e-03
    outer loop
      vertex 3.083411e+00 6.555053e+00 1.306373e+01
      vertex 3.720042e+00 6.554353e+00 1.306408e+01
      vertex 3.720595e+00 6.552906e+00 1.206079e+01
    endloop
  endfacet
  facet normal 1.096935e-03 9.999984e-01 -1.443790e-03
    outer loop
      vertex 3.083411e+00 6.555053e+00 1.306373e+01
      vertex 3.720595e+00 6.552906e+00 1.206079e+01
      vertex 3.083964e+00 6.553604e+00 1.206043e+01
    endloop
  endfacet
  facet normal -1.096934e-03 -9.999984e-01 1.441889e-03
    outer loop
      vertex 4.361615e+00 2.540703e+00 1.206694e+01
      vertex 4.998246e+00 2.540006e+00 1.206729e+01
      vertex 4.997693e+00 2.541453e+00 1.307059e+01
    endloop
  endfacet
  facet normal -1.099930e-03 -9.999983e-01 1.443788e-03
    outer loop
      vertex 4.361615e+00 2.540703e+00 1.206694e+01
      vertex 4.997693e+00 2.541453e+00 1.307059e+01
      vertex 4.361062e+00 2.542153e+00 1.307024e+01
    endloop
  endfacet
  facet normal 1.096935e-03 9.999984e-01 -1.443792e-03
    outer loop
      vertex 4.356673e+00 6.553655e+00 1.306444e+01
      vertex 4.993304e+00 6.552958e+00 1.306479e+01
      vertex 4.993855e+00 6.551508e+00 1.206149e+01
    endloop
  endfacet
  facet normal 1.096938e-03 9.999984e-01 -1.443790e-03
    outer loop
      vertex 4.356673e+00 6.553655e+00 1.306444e+01
      vertex 4.993855e+00 6.551508e+00 1.206149e+01
      vertex 4.357226e+00 6.552206e+00 1.206114e+01
    endloop
  endfacet
  facet normal -1.099935e-03 -9.999984e-01 1.445687e-03
    outer loop
      vertex 6.908137e+00 2.537910e+00 1.206835e+01
      vertex 7.544766e+00 2.537210e+00 1.206870e+01
      vertex 7.544211e+00 2.538661e+00 1.307199e+01
    endloop
  endfacet
  facet normal -1.099932e-03 -9.999984e-01 1.445685e-03
    outer loop
      vertex 6.908137e+00 2.537910e+00 1.206835e+01
      vertex 7.544211e+00 2.538661e+00 1.307199e+01
      vertex 6.907580e+00 2.539361e+00 1.307164e+01
    endloop
  endfacet
  facet normal 1.096937e-03 9.999983e-01 -1.447590e-03
    outer loop
      vertex 6.903191e+00 6.550864e+00 1.306584e+01
      vertex 7.539822e+00 6.550166e+00 1.306619e+01
      vertex 7.540377e+00 6.548713e+00 1.206291e+01
    endloop
  endfacet
  facet normal 1.099932e-03 9.999984e-01 -1.445687e-03
    outer loop
      vertex 6.903191e+00 6.550864e+00 1.306584e+01
      vertex 7.540377e+00 6.548713e+00 1.206291e+01
      vertex 6.903746e+00 6.549413e+00 1.206255e+01
    endloop
  endfacet
  facet normal -1.093945e-03 -9.999984e-01 1.443792e-03
    outer loop
      vertex 7.544766e+00 2.537210e+00 1.206870e+01
      vertex 8.181393e+00 2.536514e+00 1.206905e+01
      vertex 8.180840e+00 2.537964e+00 1.307234e+01
    endloop
  endfacet
  facet normal -1.096939e-03 -9.999983e-01 1.445689e-03
    outer loop
      vertex 7.544766e+00 2.537210e+00 1.206870e+01
      vertex 8.180840e+00 2.537964e+00 1.307234e+01
      vertex 7.544211e+00 2.538661e+00 1.307199e+01
    endloop
  endfacet
  facet normal 1.096933e-03 9.999984e-01 -1.441889e-03
    outer loop
      vertex 7.543332e+00 3.340962e+00 1.307083e+01
      vertex 8.179963e+00 3.340264e+00 1.307118e+01
      vertex 8.180516e+00 3.338817e+00 1.206789e+01
    endloop
  endfacet
  facet normal 1.090950e-03 9.999983e-01 -1.445690e-03
    outer loop
      vertex 7.543332e+00 3.340962e+00 1.307083e+01
      vertex 8.180516e+00 3.338817e+00 1.206789e+01
      vertex 7.543889e+00 3.339511e+00 1.206754e+01
    endloop
  endfacet
  facet normal -1.099932e-03 -9.999984e-01 1.445685e-03
    outer loop
      vertex 7.541256e+00 5.746415e+00 1.206407e+01
      vertex 8.177887e+00 5.745715e+00 1.206442e+01
      vertex 8.177330e+00 5.747166e+00 1.306770e+01
    endloop
  endfacet
  facet normal -1.096935e-03 -9.999984e-01 1.443786e-03
    outer loop
      vertex 7.541256e+00 5.746415e+00 1.206407e+01
      vertex 8.177330e+00 5.747166e+00 1.306770e+01
      vertex 7.540699e+00 5.747864e+00 1.306735e+01
    endloop
  endfacet
  facet normal 1.099935e-03 9.999984e-01 -1.445685e-03
    outer loop
      vertex 7.539822e+00 6.550166e+00 1.306619e+01
      vertex 8.176451e+00 6.549466e+00 1.306655e+01
      vertex 8.177008e+00 6.548015e+00 1.206326e+01
    endloop
  endfacet
  facet normal 1.096937e-03 9.999983e-01 -1.447590e-03
    outer loop
      vertex 7.539822e+00 6.550166e+00 1.306619e+01
      vertex 8.177008e+00 6.548015e+00 1.206326e+01
      vertex 7.540377e+00 6.548713e+00 1.206291e+01
    endloop
  endfacet
  facet normal -1.096933e-03 -9.999984e-01 1.441889e-03
    outer loop
      vertex 8.181393e+00 2.536514e+00 1.206905e+01
      vertex 8.818024e+00 2.535817e+00 1.206940e+01
      vertex 8.817471e+00 2.537264e+00 1.307269e+01
    endloop
  endfacet
  facet normal -1.099931e-03 -9.999983e-01 1.443788e-03
    outer loop
      vertex 8.181393e+00 2.536514e+00 1.206905e+01
      vertex 8.817471e+00 2.537264e+00 1.307269e+01
      vertex 8.180840e+00 2.537964e+00 1.307234e+01
    endloop
  endfacet
  facet normal 1.096936e-03 9.999983e-01 -1.445687e-03
    outer loop
      vertex 8.176451e+00 6.549466e+00 1.306655e+01
      vertex 8.813082e+00 6.548769e+00 1.306690e+01
      vertex 8.813639e+00 6.547318e+00 1.206361e+01
    endloop
  endfacet
  facet normal 1.096936e-03 9.999983e-01 -1.445687e-03
    outer loop
      vertex 8.176451e+00 6.549466e+00 1.306655e+01
      vertex 8.813639e+00 6.547318e+00 1.206361e+01
      vertex 8.177008e+00 6.548015e+00 1.206326e+01
    endloop
  endfacet
  facet normal -9.999992e-01 -1.093971e-03 -5.478215e-04
    outer loop
      vertex 1.814216e+00 3.345799e+00 1.206437e+01
      vertex 1.815093e+00 2.543497e+00 1.206553e+01
      vertex 1.814542e+00 2.544946e+00 1.306882e+01
    endloop
  endfacet
  facet normal -9.999992e-01 -1.096353e-03 -5.497212e-04
    outer loop
      vertex 1.814216e+00 3.345799e+00 1.206437e+01
      vertex 1.814542e+00 2.544946e+00 1.306882e+01
      vertex 1.813663e+00 3.347246e+00 1.306766e+01
    endloop
  endfacet
  facet normal 9.999992e-01 1.093976e-03 5.497247e-04
    outer loop
      vertex 8.816594e+00 3.339564e+00 1.307153e+01
      vertex 8.817471e+00 2.537264e+00 1.307269e+01
      vertex 8.818024e+00 2.535817e+00 1.206940e+01
    endloop
  endfacet
  facet normal 9.999992e-01 1.093976e-03 5.497247e-04
    outer loop
      vertex 8.816594e+00 3.339564e+00 1.307153e+01
      vertex 8.818024e+00 2.535817e+00 1.206940e+01
      vertex 8.817147e+00 3.338117e+00 1.206824e+01
    endloop
  endfacet
  facet normal 9.999992e-01 1.096351e-03 5.497212e-04
    outer loop
      vertex 8.815715e+00 4.141867e+00 1.307038e+01
      vertex 8.816594e+00 3.339564e+00 1.307153e+01
      vertex 8.817147e+00 3.338117e+00 1.206824e+01
    endloop
  endfacet
  facet normal 9.999992e-01 1.096353e-03 5.497191e-04
    outer loop
      vertex 8.815715e+00 4.141867e+00 1.307038e+01
      vertex 8.817147e+00 3.338117e+00 1.206824e+01
      vertex 8.816268e+00 4.140418e+00 1.206708e+01
    endloop
  endfacet
  facet normal -9.999992e-01 -1.093973e-03 -5.478236e-04
    outer loop
      vertex 1.812460e+00 4.950400e+00 1.206205e+01
      vertex 1.813337e+00 4.148100e+00 1.206321e+01
      vertex 1.812786e+00 4.149547e+00 1.306650e+01
    endloop
  endfacet
  facet normal -9.999992e-01 -1.096353e-03 -5.497212e-04
    outer loop
      vertex 1.812460e+00 4.950400e+00 1.206205e+01
      vertex 1.812786e+00 4.149547e+00 1.306650e+01
      vertex 1.811907e+00 4.951847e+00 1.306534e+01
    endloop
  endfacet
  facet normal 9.999993e-01 1.093979e-03 5.497226e-04
    outer loop
      vertex 8.814838e+00 4.944166e+00 1.306922e+01
      vertex 8.815715e+00 4.141867e+00 1.307038e+01
      vertex 8.816268e+00 4.140418e+00 1.206708e+01
    endloop
  endfacet
  facet normal 9.999992e-01 1.093976e-03 5.497247e-04
    outer loop
      vertex 8.814838e+00 4.944166e+00 1.306922e+01
      vertex 8.816268e+00 4.140418e+00 1.206708e+01
      vertex 8.815391e+00 4.942718e+00 1.206592e+01
    endloop
  endfacet
  facet normal -9.999992e-01 -1.096353e-03 -5.497212e-04
    outer loop
      vertex 1.811581e+00 5.752701e+00 1.206089e+01
      vertex 1.812460e+00 4.950400e+00 1.206205e+01
      vertex 1.811907e+00 4.951847e+00 1.306534e+01
    endloop
  endfacet
  facet normal -9.999992e-01 -1.093973e-03 -5.478235e-04
    outer loop
      vertex 1.811581e+00 5.752701e+00 1.206089e+01
      vertex 1.811907e+00 4.951847e+00 1.306534e+01
      vertex 1.811030e+00 5.754148e+00 1.306418e+01
    endloop
  endfacet
  facet normal 9.999992e-01 1.096351e-03 5.497212e-04
    outer loop
      vertex 8.813959e+00 5.746468e+00 1.306806e+01
      vertex 8.814838e+00 4.944166e+00 1.306922e+01
      vertex 8.815391e+00 4.942718e+00 1.206592e+01
    endloop
  endfacet
  facet normal 9.999992e-01 1.091607e-03 5.535262e-04
    outer loop
      vertex 8.813959e+00 5.746468e+00 1.306806e+01
      vertex 8.815391e+00 4.942718e+00 1.206592e+01
      vertex 8.814516e+00 5.745017e+00 1.206477e+01
    endloop
  endfacet
  facet normal -9.999992e-01 -1.093973e-03 -5.478236e-04
    outer loop
      vertex 1.810704e+00 6.555001e+00 1.205973e+01
      vertex 1.811581e+00 5.752701e+00 1.206089e+01
      vertex 1.811030e+00 5.754148e+00 1.306418e+01
    endloop
  endfacet
  facet normal -9.999992e-01 -1.093973e-03 -5.478235e-04
    outer loop
      vertex 1.810704e+00 6.555001e+00 1.205973e+01
      vertex 1.811030e+00 5.754148e+00 1.306418e+01
      vertex 1.810153e+00 6.556449e+00 1.306303e+01
    endloop
  endfacet
  facet normal 9.999992e-01 1.093981e-03 5.535227e-04
    outer loop
      vertex 8.813082e+00 6.548769e+00 1.306690e+01
      vertex 8.813959e+00 5.746468e+00 1.306806e+01
      vertex 8.814516e+00 5.745017e+00 1.206477e+01
    endloop
  endfacet
  facet normal 9.999992e-01 1.093981e-03 5.535227e-04
    outer loop
      vertex 8.813082e+00 6.548769e+00 1.306690e+01
      vertex 8.814516e+00 5.745017e+00 1.206477e+01
      vertex 8.813639e+00 6.547318e+00 1.206361e+01
    endloop
  endfacet
  facet normal -2.614836e-07 -3.514683e-07 -1.000000e+00
    outer loop
      vertex -1.612839e+00 1.761928e+01 1.101811e+01
      vertex 7.053980e+00 2.122022e+01 1.101811e+01
      vertex 5.256241e+00 4.546129e+00 1.101811e+01
    endloop
  endfacet
  facet normal 3.456880e-07 -3.242971e-08 -1.000000e+00
    outer loop
      vertex -5.902359e+00 6.488345e-01 1.101811e+01
      vertex -1.612839e+00 1.761928e+01 1.101811e+01
      vertex 5.256241e+00 4.546129e+00 1.101811e+01
    endloop
  endfacet
  facet normal 4.601167e-07 -3.601992e-07 -1.000000e+00
    outer loop
      vertex -7.715300e-01 -1.108321e+01 1.101812e+01
      vertex -5.902359e+00 6.488345e-01 1.101811e+01
      vertex 5.256241e+00 4.546129e+00 1.101811e+01
    endloop
  endfacet
  facet normal 7.261174e-09 -1.854601e-07 -1.000000e+00
    outer loop
      vertex 1.461710e+01 -8.230669e+00 1.101812e+01
      vertex -7.715300e-01 -1.108321e+01 1.101812e+01
      vertex 5.256241e+00 4.546129e+00 1.101811e+01
    endloop
  endfacet
  facet normal 5.465881e-07 2.095672e-07 -1.000000e+00
    outer loop
      vertex 1.815310e+01 7.102317e+00 1.101812e+01
      vertex 1.461710e+01 -8.230669e+00 1.101812e+01
      vertex 5.256241e+00 4.546129e+00 1.101811e+01
    endloop
  endfacet
  facet normal 6.778207e-07 -4.528048e-07 -1.000000e+00
    outer loop
      vertex 7.053980e+00 2.122022e+01 1.101811e+01
      vertex 1.815310e+01 7.102317e+00 1.101812e+01
      vertex 5.256241e+00 4.546129e+00 1.101811e+01
    endloop
  endfacet
  facet normal -3.430535e-01 8.256678e-01 4.478694e-01
    outer loop
      vertex 3.243525e+00 2.708167e+01 3.476815e+00
      vertex 2.035601e+01 3.607761e+01 0.000000e+00
      vertex -2.042901e+01 1.913200e+01 4.263256e-14
    endloop
  endfacet
  facet normal -3.430535e-01 8.256685e-01 4.478681e-01
    outer loop
      vertex 3.243525e+00 2.708167e+01 3.476815e+00
      vertex -2.042901e+01 1.913200e+01 4.263256e-14
      vertex -1.980381e+00 2.491121e+01 3.476818e+00
    endloop
  endfacet
  facet normal -3.430535e-01 8.256679e-01 4.478691e-01
    outer loop
      vertex -1.980381e+00 2.491121e+01 3.476818e+00
      vertex -2.042901e+01 1.913200e+01 4.263256e-14
      vertex -2.825031e+00 1.992630e+01 1.201975e+01
    endloop
  endfacet
  facet normal -3.430551e-01 8.256676e-01 4.478686e-01
    outer loop
      vertex -1.980381e+00 2.491121e+01 3.476818e+00
      vertex -2.825031e+00 1.992630e+01 1.201975e+01
      vertex -1.006925e+00 2.256764e+01 8.542941e+00
    endloop
  endfacet
  facet normal -3.430535e-01 8.256677e-01 4.478697e-01
    outer loop
      vertex -1.006925e+00 2.256764e+01 8.542941e+00
      vertex -2.825031e+00 1.992630e+01 1.201975e+01
      vertex 7.371225e+00 2.416271e+01 1.201975e+01
    endloop
  endfacet
  facet normal -3.430533e-01 8.256683e-01 4.478686e-01
    outer loop
      vertex -1.006925e+00 2.256764e+01 8.542941e+00
      vertex 7.371225e+00 2.416271e+01 1.201975e+01
      vertex 4.216983e+00 2.473810e+01 8.542938e+00
    endloop
  endfacet
  facet normal -3.430536e-01 8.256680e-01 4.478689e-01
    outer loop
      vertex 4.216983e+00 2.473810e+01 8.542938e+00
      vertex 7.371225e+00 2.416271e+01 1.201975e+01
      vertex 2.035601e+01 3.607761e+01 0.000000e+00
    endloop
  endfacet
  facet normal -3.430537e-01 8.256680e-01 4.478688e-01
    outer loop
      vertex 4.216983e+00 2.473810e+01 8.542938e+00
      vertex 2.035601e+01 3.607761e+01 0.000000e+00
      vertex 3.243525e+00 2.708167e+01 3.476815e+00
    endloop
  endfacet
  facet normal 3.348425e-01 -8.059050e-01 -4.882598e-01
    outer loop
      vertex 1.748476e+01 3.162257e+01 1.001649e+00
      vertex 3.517174e+00 2.428291e+01 3.537451e+00
      vertex -1.718251e+01 1.721880e+01 1.001648e+00
    endloop
  endfacet
  facet normal 3.348423e-01 -8.059037e-01 -4.882624e-01
    outer loop
      vertex -1.718251e+01 1.721880e+01 1.001648e+00
      vertex 3.517174e+00 2.428291e+01 3.537451e+00
      vertex -1.706729e+00 2.211245e+01 3.537446e+00
    endloop
  endfacet
  facet normal 3.348423e-01 -8.059050e-01 -4.882598e-01
    outer loop
      vertex -1.718251e+01 1.721880e+01 1.001648e+00
      vertex -1.706729e+00 2.211245e+01 3.537446e+00
      vertex -1.612839e+00 1.761928e+01 1.101811e+01
    endloop
  endfacet
  facet normal 3.348415e-01 -8.059053e-01 -4.882599e-01
    outer loop
      vertex -1.612839e+00 1.761928e+01 1.101811e+01
      vertex -1.706729e+00 2.211245e+01 3.537446e+00
      vertex -6.454818e-01 1.955752e+01 8.482302e+00
    endloop
  endfacet
  facet normal 3.348424e-01 -8.059052e-01 -4.882596e-01
    outer loop
      vertex -1.612839e+00 1.761928e+01 1.101811e+01
      vertex -6.454818e-01 1.955752e+01 8.482302e+00
      vertex 7.053980e+00 2.122022e+01 1.101811e+01
    endloop
  endfacet
  facet normal 3.348425e-01 -8.059048e-01 -4.882601e-01
    outer loop
      vertex 7.053980e+00 2.122022e+01 1.101811e+01
      vertex -6.454818e-01 1.955752e+01 8.482302e+00
      vertex 4.578424e+00 2.172799e+01 8.482299e+00
    endloop
  endfacet
  facet normal 3.348424e-01 -8.059049e-01 -4.882600e-01
    outer loop
      vertex 7.053980e+00 2.122022e+01 1.101811e+01
      vertex 4.578424e+00 2.172799e+01 8.482299e+00
      vertex 1.748476e+01 3.162257e+01 1.001649e+00
    endloop
  endfacet
  facet normal 3.348423e-01 -8.059049e-01 -4.882601e-01
    outer loop
      vertex 1.748476e+01 3.162257e+01 1.001649e+00
      vertex 4.578424e+00 2.172799e+01 8.482299e+00
      vertex 3.517174e+00 2.428291e+01 3.537451e+00
    endloop
  endfacet
  facet normal -8.647376e-03 2.081418e-02 9.997460e-01
    outer loop
      vertex 3.517174e+00 2.428291e+01 3.537451e+00
      vertex 3.243525e+00 2.708167e+01 3.476815e+00
      vertex -1.980381e+00 2.491121e+01 3.476818e+00
    endloop
  endfacet
  facet normal -8.647692e-03 2.081142e-02 9.997460e-01
    outer loop
      vertex 3.517174e+00 2.428291e+01 3.537451e+00
      vertex -1.980381e+00 2.491121e+01 3.476818e+00
      vertex -1.706729e+00 2.211245e+01 3.537446e+00
    endloop
  endfacet
  facet normal 9.848674e-01 9.312999e-02 -1.461608e-01
    outer loop
      vertex -1.706729e+00 2.211245e+01 3.537446e+00
      vertex -1.980381e+00 2.491121e+01 3.476818e+00
      vertex -1.006925e+00 2.256764e+01 8.542941e+00
    endloop
  endfacet
  facet normal 9.815438e-01 1.208457e-01 -1.482165e-01
    outer loop
      vertex -1.706729e+00 2.211245e+01 3.537446e+00
      vertex -1.006925e+00 2.256764e+01 8.542941e+00
      vertex -6.454818e-01 1.955752e+01 8.482302e+00
    endloop
  endfacet
  facet normal -7.971077e-03 1.918344e-02 -9.997842e-01
    outer loop
      vertex -6.454818e-01 1.955752e+01 8.482302e+00
      vertex -1.006925e+00 2.256764e+01 8.542941e+00
      vertex 4.216983e+00 2.473810e+01 8.542938e+00
    endloop
  endfacet
  facet normal -7.971107e-03 1.918347e-02 -9.997842e-01
    outer loop
      vertex -6.454818e-01 1.955752e+01 8.482302e+00
      vertex 4.216983e+00 2.473810e+01 8.542938e+00
      vertex 4.578424e+00 2.172799e+01 8.482299e+00
    endloop
  endfacet
  facet normal -9.837080e-01 -1.208014e-01 1.331377e-01
    outer loop
      vertex 4.578424e+00 2.172799e+01 8.482299e+00
      vertex 4.216983e+00 2.473810e+01 8.542938e+00
      vertex 3.243525e+00 2.708167e+01 3.476815e+00
    endloop
  endfacet
  facet normal -9.822769e-01 -9.251050e-02 1.630149e-01
    outer loop
      vertex 4.578424e+00 2.172799e+01 8.482299e+00
      vertex 3.243525e+00 2.708167e+01 3.476815e+00
      vertex 3.517174e+00 2.428291e+01 3.537451e+00
    endloop
  endfacet
  facet normal -5.625209e-01 1.421854e-01 8.144652e-01
    outer loop
      vertex -2.825031e+00 1.992630e+01 1.201975e+01
      vertex -2.042901e+01 1.913200e+01 4.263256e-14
      vertex -7.871523e+00 -3.892384e-02 1.201976e+01
    endloop
  endfacet
  facet normal 5.384788e-01 -1.361081e-01 -8.315739e-01
    outer loop
      vertex -5.902359e+00 6.488345e-01 1.101811e+01
      vertex -1.718251e+01 1.721880e+01 1.001648e+00
      vertex -1.612839e+00 1.761928e+01 1.101811e+01
    endloop
  endfacet
  facet normal -8.730990e-01 -3.818363e-01 3.031488e-01
    outer loop
      vertex -8.526838e+00 -5.454970e+00 3.310519e+00
      vertex -2.042901e+01 1.913200e+01 4.263256e-14
      vertex 3.716050e+00 -3.607761e+01 1.435296e-12
    endloop
  endfacet
  facet normal -8.730986e-01 -3.818362e-01 3.031500e-01
    outer loop
      vertex -8.526838e+00 -5.454970e+00 3.310519e+00
      vertex 3.716050e+00 -3.607761e+01 1.435296e-12
      vertex -6.256458e+00 -1.064637e+01 3.310526e+00
    endloop
  endfacet
  facet normal -8.730990e-01 -3.818362e-01 3.031489e-01
    outer loop
      vertex -6.256458e+00 -1.064637e+01 3.310526e+00
      vertex 3.716050e+00 -3.607761e+01 1.435296e-12
      vertex -1.835256e+00 -1.384133e+01 1.201976e+01
    endloop
  endfacet
  facet normal -8.730990e-01 -3.818360e-01 3.031490e-01
    outer loop
      vertex -6.256458e+00 -1.064637e+01 3.310526e+00
      vertex -1.835256e+00 -1.384133e+01 1.201976e+01
      vertex -4.683033e+00 -9.957959e+00 8.709240e+00
    endloop
  endfacet
  facet normal -8.730990e-01 -3.818363e-01 3.031488e-01
    outer loop
      vertex -4.683033e+00 -9.957959e+00 8.709240e+00
      vertex -1.835256e+00 -1.384133e+01 1.201976e+01
      vertex -7.871523e+00 -3.892384e-02 1.201976e+01
    endloop
  endfacet
  facet normal -8.730983e-01 -3.818366e-01 3.031506e-01
    outer loop
      vertex -4.683033e+00 -9.957959e+00 8.709240e+00
      vertex -7.871523e+00 -3.892384e-02 1.201976e+01
      vertex -6.953414e+00 -4.766562e+00 8.709241e+00
    endloop
  endfacet
  facet normal -8.730989e-01 -3.818359e-01 3.031494e-01
    outer loop
      vertex -6.953414e+00 -4.766562e+00 8.709241e+00
      vertex -7.871523e+00 -3.892384e-02 1.201976e+01
      vertex -2.042901e+01 1.913200e+01 4.263256e-14
    endloop
  endfacet
  facet normal -8.730991e-01 -3.818363e-01 3.031485e-01
    outer loop
      vertex -6.953414e+00 -4.766562e+00 8.709241e+00
      vertex -2.042901e+01 1.913200e+01 4.263256e-14
      vertex -8.526838e+00 -5.454970e+00 3.310519e+00
    endloop
  endfacet
  facet normal 8.595746e-01 3.759217e-01 -3.461424e-01
    outer loop
      vertex -1.718251e+01 1.721880e+01 1.001648e+00
      vertex -7.162333e+00 -3.528541e+00 3.352457e+00
      vertex 3.340798e+00 -2.970937e+01 1.001651e+00
    endloop
  endfacet
  facet normal 8.595747e-01 3.759217e-01 -3.461422e-01
    outer loop
      vertex 3.340798e+00 -2.970937e+01 1.001651e+00
      vertex -7.162333e+00 -3.528541e+00 3.352457e+00
      vertex -4.891956e+00 -8.719939e+00 3.352456e+00
    endloop
  endfacet
  facet normal 8.595746e-01 3.759216e-01 -3.461423e-01
    outer loop
      vertex 3.340798e+00 -2.970937e+01 1.001651e+00
      vertex -4.891956e+00 -8.719939e+00 3.352456e+00
      vertex -7.715300e-01 -1.108321e+01 1.101812e+01
    endloop
  endfacet
  facet normal 8.595749e-01 3.759209e-01 -3.461426e-01
    outer loop
      vertex -7.715300e-01 -1.108321e+01 1.101812e+01
      vertex -4.891956e+00 -8.719939e+00 3.352456e+00
      vertex -3.095463e+00 -7.933934e+00 8.667305e+00
    endloop
  endfacet
  facet normal 8.595748e-01 3.759216e-01 -3.461417e-01
    outer loop
      vertex -7.715300e-01 -1.108321e+01 1.101812e+01
      vertex -3.095463e+00 -7.933934e+00 8.667305e+00
      vertex -5.902359e+00 6.488345e-01 1.101811e+01
    endloop
  endfacet
  facet normal 8.595740e-01 3.759219e-01 -3.461435e-01
    outer loop
      vertex -5.902359e+00 6.488345e-01 1.101811e+01
      vertex -3.095463e+00 -7.933934e+00 8.667305e+00
      vertex -5.365844e+00 -2.742535e+00 8.667306e+00
    endloop
  endfacet
  facet normal 8.595744e-01 3.759214e-01 -3.461428e-01
    outer loop
      vertex -5.902359e+00 6.488345e-01 1.101811e+01
      vertex -5.365844e+00 -2.742535e+00 8.667306e+00
      vertex -1.718251e+01 1.721880e+01 1.001648e+00
    endloop
  endfacet
  facet normal 8.595747e-01 3.759217e-01 -3.461422e-01
    outer loop
      vertex -1.718251e+01 1.721880e+01 1.001648e+00
      vertex -5.365844e+00 -2.742535e+00 8.667306e+00
      vertex -7.162333e+00 -3.528541e+00 3.352457e+00
    endloop
  endfacet
  facet normal -1.899932e-02 -8.307754e-03 9.997849e-01
    outer loop
      vertex -7.162333e+00 -3.528541e+00 3.352457e+00
      vertex -8.526838e+00 -5.454970e+00 3.310519e+00
      vertex -6.256458e+00 -1.064637e+01 3.310526e+00
    endloop
  endfacet
  facet normal -1.899461e-02 -8.307155e-03 9.997851e-01
    outer loop
      vertex -7.162333e+00 -3.528541e+00 3.352457e+00
      vertex -6.256458e+00 -1.064637e+01 3.310526e+00
      vertex -4.891956e+00 -8.719939e+00 3.352456e+00
    endloop
  endfacet
  facet normal -8.068259e-01 5.679372e-01 1.627250e-01
    outer loop
      vertex -4.891956e+00 -8.719939e+00 3.352456e+00
      vertex -6.256458e+00 -1.064637e+01 3.310526e+00
      vertex -4.683033e+00 -9.957959e+00 8.709240e+00
    endloop
  endfacet
  facet normal -7.734921e-01 6.102454e-01 1.712029e-01
    outer loop
      vertex -4.891956e+00 -8.719939e+00 3.352456e+00
      vertex -4.683033e+00 -9.957959e+00 8.709240e+00
      vertex -3.095463e+00 -7.933934e+00 8.667305e+00
    endloop
  endfacet
  facet normal -1.695601e-02 -7.415301e-03 -9.998288e-01
    outer loop
      vertex -3.095463e+00 -7.933934e+00 8.667305e+00
      vertex -4.683033e+00 -9.957959e+00 8.709240e+00
      vertex -6.953414e+00 -4.766562e+00 8.709241e+00
    endloop
  endfacet
  facet normal -1.695601e-02 -7.415298e-03 -9.998288e-01
    outer loop
      vertex -3.095463e+00 -7.933934e+00 8.667305e+00
      vertex -6.953414e+00 -4.766562e+00 8.709241e+00
      vertex -5.365844e+00 -2.742535e+00 8.667306e+00
    endloop
  endfacet
  facet normal 7.766428e-01 -6.122411e-01 -1.482789e-01
    outer loop
      vertex -5.365844e+00 -2.742535e+00 8.667306e+00
      vertex -6.953414e+00 -4.766562e+00 8.709241e+00
      vertex -8.526838e+00 -5.454970e+00 3.310519e+00
    endloop
  endfacet
  facet normal 8.034078e-01 -5.649672e-01 -1.880101e-01
    outer loop
      vertex -5.365844e+00 -2.742535e+00 8.667306e+00
      vertex -8.526838e+00 -5.454970e+00 3.310519e+00
      vertex -7.162333e+00 -3.528541e+00 3.352457e+00
    endloop
  endfacet
  facet normal 8.477673e-02 -4.573481e-01 8.852376e-01
    outer loop
      vertex -1.835256e+00 -1.384133e+01 1.201976e+01
      vertex 3.716050e+00 -3.607761e+01 1.435296e-12
      vertex 1.626903e+01 -1.048540e+01 1.201977e+01
    endloop
  endfacet
  facet normal -8.477479e-02 4.573353e-01 -8.852445e-01
    outer loop
      vertex 1.461710e+01 -8.230669e+00 1.101812e+01
      vertex 3.340798e+00 -2.970937e+01 1.001651e+00
      vertex -7.715300e-01 -1.108321e+01 1.101812e+01
    endloop
  endfacet
  facet normal 8.576913e-01 -1.977951e-01 -4.745975e-01
    outer loop
      vertex 1.324682e+01 -3.188146e+00 3.516835e+00
      vertex 3.716050e+00 -3.607761e+01 1.435296e-12
      vertex 2.035601e+01 3.607761e+01 0.000000e+00
    endloop
  endfacet
  facet normal 8.576891e-01 -1.977951e-01 -4.746017e-01
    outer loop
      vertex 1.324682e+01 -3.188146e+00 3.516835e+00
      vertex 2.035601e+01 3.607761e+01 0.000000e+00
      vertex 1.451944e+01 2.330283e+00 3.516837e+00
    endloop
  endfacet
  facet normal 8.576910e-01 -1.977950e-01 -4.745980e-01
    outer loop
      vertex 1.451944e+01 2.330283e+00 3.516837e+00
      vertex 2.035601e+01 3.607761e+01 0.000000e+00
      vertex 2.042901e+01 7.553408e+00 1.201977e+01
    endloop
  endfacet
  facet normal 8.576909e-01 -1.977940e-01 -4.745986e-01
    outer loop
      vertex 1.451944e+01 2.330283e+00 3.516837e+00
      vertex 2.042901e+01 7.553408e+00 1.201977e+01
      vertex 1.713823e+01 1.722153e+00 8.502930e+00
    endloop
  endfacet
  facet normal 8.576913e-01 -1.977949e-01 -4.745975e-01
    outer loop
      vertex 1.713823e+01 1.722153e+00 8.502930e+00
      vertex 2.042901e+01 7.553408e+00 1.201977e+01
      vertex 1.626903e+01 -1.048540e+01 1.201977e+01
    endloop
  endfacet
  facet normal 8.576896e-01 -1.977955e-01 -4.746003e-01
    outer loop
      vertex 1.713823e+01 1.722153e+00 8.502930e+00
      vertex 1.626903e+01 -1.048540e+01 1.201977e+01
      vertex 1.586560e+01 -3.796277e+00 8.502936e+00
    endloop
  endfacet
  facet normal 8.576906e-01 -1.977947e-01 -4.745989e-01
    outer loop
      vertex 1.586560e+01 -3.796277e+00 8.502936e+00
      vertex 1.626903e+01 -1.048540e+01 1.201977e+01
      vertex 3.716050e+00 -3.607761e+01 1.435296e-12
    endloop
  endfacet
  facet normal 8.576909e-01 -1.977949e-01 -4.745981e-01
    outer loop
      vertex 1.586560e+01 -3.796277e+00 8.502936e+00
      vertex 3.716050e+00 -3.607761e+01 1.435296e-12
      vertex 1.324682e+01 -3.188146e+00 3.516835e+00
    endloop
  endfacet
  facet normal -8.299751e-01 1.914033e-01 5.239335e-01
    outer loop
      vertex 3.340798e+00 -2.970937e+01 1.001651e+00
      vertex 1.131720e+01 -2.227349e+00 3.597529e+00
      vertex 1.748476e+01 3.162257e+01 1.001649e+00
    endloop
  endfacet
  facet normal -8.299739e-01 1.914033e-01 5.239354e-01
    outer loop
      vertex 1.748476e+01 3.162257e+01 1.001649e+00
      vertex 1.131720e+01 -2.227349e+00 3.597529e+00
      vertex 1.258982e+01 3.291081e+00 3.597523e+00
    endloop
  endfacet
  facet normal -8.299752e-01 1.914033e-01 5.239332e-01
    outer loop
      vertex 1.748476e+01 3.162257e+01 1.001649e+00
      vertex 1.258982e+01 3.291081e+00 3.597523e+00
      vertex 1.815310e+01 7.102317e+00 1.101812e+01
    endloop
  endfacet
  facet normal -8.299752e-01 1.914031e-01 5.239333e-01
    outer loop
      vertex 1.815310e+01 7.102317e+00 1.101812e+01
      vertex 1.258982e+01 3.291081e+00 3.597523e+00
      vertex 1.548068e+01 2.619772e+00 8.422236e+00
    endloop
  endfacet
  facet normal -8.299754e-01 1.914034e-01 5.239328e-01
    outer loop
      vertex 1.815310e+01 7.102317e+00 1.101812e+01
      vertex 1.548068e+01 2.619772e+00 8.422236e+00
      vertex 1.461710e+01 -8.230669e+00 1.101812e+01
    endloop
  endfacet
  facet normal -8.299749e-01 1.914035e-01 5.239335e-01
    outer loop
      vertex 1.461710e+01 -8.230669e+00 1.101812e+01
      vertex 1.548068e+01 2.619772e+00 8.422236e+00
      vertex 1.420805e+01 -2.898656e+00 8.422234e+00
    endloop
  endfacet
  facet normal -8.299751e-01 1.914034e-01 5.239332e-01
    outer loop
      vertex 1.461710e+01 -8.230669e+00 1.101812e+01
      vertex 1.420805e+01 -2.898656e+00 8.422234e+00
      vertex 3.340798e+00 -2.970937e+01 1.001651e+00
    endloop
  endfacet
  facet normal -8.299751e-01 1.914034e-01 5.239332e-01
    outer loop
      vertex 3.340798e+00 -2.970937e+01 1.001651e+00
      vertex 1.420805e+01 -2.898656e+00 8.422234e+00
      vertex 1.131720e+01 -2.227349e+00 3.597529e+00
    endloop
  endfacet
  facet normal 3.748334e-02 -8.644477e-03 9.992599e-01
    outer loop
      vertex 1.131720e+01 -2.227349e+00 3.597529e+00
      vertex 1.324682e+01 -3.188146e+00 3.516835e+00
      vertex 1.451944e+01 2.330283e+00 3.516837e+00
    endloop
  endfacet
  facet normal 3.748033e-02 -8.642358e-03 9.992600e-01
    outer loop
      vertex 1.131720e+01 -2.227349e+00 3.597529e+00
      vertex 1.451944e+01 2.330283e+00 3.516837e+00
      vertex 1.258982e+01 3.291081e+00 3.597523e+00
    endloop
  endfacet
  facet normal -4.383369e-01 -8.905462e-01 1.216068e-01
    outer loop
      vertex 1.258982e+01 3.291081e+00 3.597523e+00
      vertex 1.451944e+01 2.330283e+00 3.516837e+00
      vertex 1.713823e+01 1.722153e+00 8.502930e+00
    endloop
  endfacet
  facet normal -4.758678e-01 -8.639155e-01 1.649238e-01
    outer loop
      vertex 1.258982e+01 3.291081e+00 3.597523e+00
      vertex 1.713823e+01 1.722153e+00 8.502930e+00
      vertex 1.548068e+01 2.619772e+00 8.422236e+00
    endloop
  endfacet
  facet normal 4.323477e-02 -9.971620e-03 -9.990152e-01
    outer loop
      vertex 1.548068e+01 2.619772e+00 8.422236e+00
      vertex 1.713823e+01 1.722153e+00 8.502930e+00
      vertex 1.586560e+01 -3.796277e+00 8.502936e+00
    endloop
  endfacet
  facet normal 4.323950e-02 -9.971334e-03 -9.990150e-01
    outer loop
      vertex 1.548068e+01 2.619772e+00 8.422236e+00
      vertex 1.586560e+01 -3.796277e+00 8.502936e+00
      vertex 1.420805e+01 -2.898656e+00 8.422234e+00
    endloop
  endfacet
  facet normal 4.766240e-01 8.671385e-01 -1.445703e-01
    outer loop
      vertex 1.420805e+01 -2.898656e+00 8.422234e+00
      vertex 1.586560e+01 -3.796277e+00 8.502936e+00
      vertex 1.324682e+01 -3.188146e+00 3.516835e+00
    endloop
  endfacet
  facet normal 4.368244e-01 8.888899e-01 -1.380550e-01
    outer loop
      vertex 1.420805e+01 -2.898656e+00 8.422234e+00
      vertex 1.324682e+01 -3.188146e+00 3.516835e+00
      vertex 1.131720e+01 -2.227349e+00 3.597529e+00
    endloop
  endfacet
  facet normal 4.438444e-01 3.489394e-01 8.253747e-01
    outer loop
      vertex 2.042901e+01 7.553408e+00 1.201977e+01
      vertex 2.035601e+01 3.607761e+01 0.000000e+00
      vertex 7.371225e+00 2.416271e+01 1.201975e+01
    endloop
  endfacet
  facet normal -4.441334e-01 -3.491667e-01 -8.251231e-01
    outer loop
      vertex 7.053980e+00 2.122022e+01 1.101811e+01
      vertex 1.748476e+01 3.162257e+01 1.001649e+00
      vertex 1.815310e+01 7.102317e+00 1.101812e+01
    endloop
  endfacet
endsolid Default
