solid OpenSCAD_Model
  facet normal 0 0 -1
    outer loop
      vertex -25 0 -120
      vertex -24.4537 5.19779 -120
      vertex -24.4537 -5.19779 -120
    endloop
  endfacet
  facet normal 0 0 -1
    outer loop
      vertex -24.4537 -5.19779 -120
      vertex -24.4537 5.19779 -120
      vertex -22.8386 10.1684 -120
    endloop
  endfacet
  facet normal 0 0 -1
    outer loop
      vertex -24.4537 -5.19779 -120
      vertex -22.8386 10.1684 -120
      vertex -20.2254 14.6946 -120
    endloop
  endfacet
  facet normal 0 0 -1
    outer loop
      vertex -24.4537 -5.19779 -120
      vertex -20.2254 14.6946 -120
      vertex -16.7283 18.5786 -120
    endloop
  endfacet
  facet normal 0 0 -1
    outer loop
      vertex -24.4537 -5.19779 -120
      vertex -16.7283 18.5786 -120
      vertex -12.5 21.6506 -120
    endloop
  endfacet
  facet normal 0 0 -1
    outer loop
      vertex -24.4537 -5.19779 -120
      vertex -12.5 21.6506 -120
      vertex -7.72542 23.7764 -120
    endloop
  endfacet
  facet normal 0 0 -1
    outer loop
      vertex -24.4537 -5.19779 -120
      vertex -7.72542 23.7764 -120
      vertex -2.61321 24.863 -120
    endloop
  endfacet
  facet normal 0 0 -1
    outer loop
      vertex -24.4537 -5.19779 -120
      vertex -2.61321 24.863 -120
      vertex 2.61321 24.863 -120
    endloop
  endfacet
  facet normal 0 0 -1
    outer loop
      vertex -24.4537 -5.19779 -120
      vertex 2.61321 24.863 -120
      vertex 7.72542 23.7764 -120
    endloop
  endfacet
  facet normal 0 0 -1
    outer loop
      vertex -24.4537 -5.19779 -120
      vertex 7.72542 23.7764 -120
      vertex 12.5 21.6506 -120
    endloop
  endfacet
  facet normal 0 0 -1
    outer loop
      vertex -24.4537 -5.19779 -120
      vertex 12.5 21.6506 -120
      vertex 16.7283 18.5786 -120
    endloop
  endfacet
  facet normal 0 0 -1
    outer loop
      vertex -24.4537 -5.19779 -120
      vertex 16.7283 18.5786 -120
      vertex 20.2254 14.6946 -120
    endloop
  endfacet
  facet normal 0 0 -1
    outer loop
      vertex -24.4537 -5.19779 -120
      vertex 20.2254 14.6946 -120
      vertex 22.8386 10.1684 -120
    endloop
  endfacet
  facet normal 0 0 -1
    outer loop
      vertex -24.4537 -5.19779 -120
      vertex 22.8386 10.1684 -120
      vertex 24.4537 5.19779 -120
    endloop
  endfacet
  facet normal 0 0 -1
    outer loop
      vertex -24.4537 -5.19779 -120
      vertex 24.4537 5.19779 -120
      vertex 25 0 -120
    endloop
  endfacet
  facet normal 0 0 -1
    outer loop
      vertex -24.4537 -5.19779 -120
      vertex 25 0 -120
      vertex 24.4537 -5.19779 -120
    endloop
  endfacet
  facet normal 0 0 -1
    outer loop
      vertex -24.4537 -5.19779 -120
      vertex 24.4537 -5.19779 -120
      vertex 22.8386 -10.1684 -120
    endloop
  endfacet
  facet normal 0 0 -1
    outer loop
      vertex -24.4537 -5.19779 -120
      vertex 22.8386 -10.1684 -120
      vertex 20.2254 -14.6946 -120
    endloop
  endfacet
  facet normal 0 0 -1
    outer loop
      vertex -24.4537 -5.19779 -120
      vertex 20.2254 -14.6946 -120
      vertex 16.7283 -18.5786 -120
    endloop
  endfacet
  facet normal 0 0 -1
    outer loop
      vertex -24.4537 -5.19779 -120
      vertex 16.7283 -18.5786 -120
      vertex 12.5 -21.6506 -120
    endloop
  endfacet
  facet normal 0 0 -1
    outer loop
      vertex -24.4537 -5.19779 -120
      vertex 12.5 -21.6506 -120
      vertex 7.72542 -23.7764 -120
    endloop
  endfacet
  facet normal 0 0 -1
    outer loop
      vertex -24.4537 -5.19779 -120
      vertex 7.72542 -23.7764 -120
      vertex 2.61321 -24.863 -120
    endloop
  endfacet
  facet normal 0 0 -1
    outer loop
      vertex -24.4537 -5.19779 -120
      vertex 2.61321 -24.863 -120
      vertex -2.61321 -24.863 -120
    endloop
  endfacet
  facet normal 0 0 -1
    outer loop
      vertex -24.4537 -5.19779 -120
      vertex -2.61321 -24.863 -120
      vertex -7.72542 -23.7764 -120
    endloop
  endfacet
  facet normal 0 0 -1
    outer loop
      vertex -24.4537 -5.19779 -120
      vertex -7.72542 -23.7764 -120
      vertex -12.5 -21.6506 -120
    endloop
  endfacet
  facet normal 0 0 -1
    outer loop
      vertex -24.4537 -5.19779 -120
      vertex -12.5 -21.6506 -120
      vertex -16.7283 -18.5786 -120
    endloop
  endfacet
  facet normal 0 0 -1
    outer loop
      vertex -24.4537 -5.19779 -120
      vertex -16.7283 -18.5786 -120
      vertex -20.2254 -14.6946 -120
    endloop
  endfacet
  facet normal 0 0 -1
    outer loop
      vertex -24.4537 -5.19779 -120
      vertex -20.2254 -14.6946 -120
      vertex -22.8386 -10.1684 -120
    endloop
  endfacet
  facet normal -0.994522 0.104528 0
    outer loop
      vertex -25 0 -120
      vertex -25 0 -113.75
      vertex -24.4537 5.19779 -120
    endloop
  endfacet
  facet normal -0.994522 0.104528 0
    outer loop
      vertex -24.4537 5.19779 -120
      vertex -25 0 -113.75
      vertex -24.4537 5.19779 -113.75
    endloop
  endfacet
  facet normal -0.994522 -0.104528 0
    outer loop
      vertex -25 0 -120
      vertex -24.4537 -5.19779 -120
      vertex -25 0 -113.75
    endloop
  endfacet
  facet normal -0.994522 -0.104528 0
    outer loop
      vertex -25 0 -113.75
      vertex -24.4537 -5.19779 -120
      vertex -24.4537 -5.19779 -113.75
    endloop
  endfacet
  facet normal -0.951056 -0.309017 0
    outer loop
      vertex -24.4537 -5.19779 -120
      vertex -22.8386 -10.1684 -120
      vertex -24.4537 -5.19779 -113.75
    endloop
  endfacet
  facet normal -0.951056 -0.309017 0
    outer loop
      vertex -24.4537 -5.19779 -113.75
      vertex -22.8386 -10.1684 -120
      vertex -22.8386 -10.1684 -113.75
    endloop
  endfacet
  facet normal -0.866025 -0.5 0
    outer loop
      vertex -22.8386 -10.1684 -120
      vertex -20.2254 -14.6946 -120
      vertex -22.8386 -10.1684 -113.75
    endloop
  endfacet
  facet normal -0.866025 -0.5 0
    outer loop
      vertex -22.8386 -10.1684 -113.75
      vertex -20.2254 -14.6946 -120
      vertex -20.2254 -14.6946 -113.75
    endloop
  endfacet
  facet normal -0.743145 -0.669131 0
    outer loop
      vertex -20.2254 -14.6946 -120
      vertex -16.7283 -18.5786 -120
      vertex -20.2254 -14.6946 -113.75
    endloop
  endfacet
  facet normal -0.743145 -0.669131 0
    outer loop
      vertex -20.2254 -14.6946 -113.75
      vertex -16.7283 -18.5786 -120
      vertex -16.7283 -18.5786 -113.75
    endloop
  endfacet
  facet normal -0.587785 -0.809017 0
    outer loop
      vertex -16.7283 -18.5786 -113.75
      vertex -16.7283 -18.5786 -120
      vertex -12.5 -21.6506 -120
    endloop
  endfacet
  facet normal -0.587785 -0.809017 0
    outer loop
      vertex -12.5 -21.6506 -113.75
      vertex -16.7283 -18.5786 -113.75
      vertex -12.5 -21.6506 -120
    endloop
  endfacet
  facet normal -0.406737 -0.913545 0
    outer loop
      vertex -12.5 -21.6506 -113.75
      vertex -12.5 -21.6506 -120
      vertex -7.72542 -23.7764 -120
    endloop
  endfacet
  facet normal -0.406737 -0.913545 0
    outer loop
      vertex -7.72542 -23.7764 -113.75
      vertex -12.5 -21.6506 -113.75
      vertex -7.72542 -23.7764 -120
    endloop
  endfacet
  facet normal -0.207912 -0.978148 0
    outer loop
      vertex -7.72542 -23.7764 -113.75
      vertex -7.72542 -23.7764 -120
      vertex -2.61321 -24.863 -120
    endloop
  endfacet
  facet normal -0.207912 -0.978148 0
    outer loop
      vertex -2.61321 -24.863 -113.75
      vertex -7.72542 -23.7764 -113.75
      vertex -2.61321 -24.863 -120
    endloop
  endfacet
  facet normal 0 -1 0
    outer loop
      vertex -2.61321 -24.863 -113.75
      vertex -2.61321 -24.863 -120
      vertex 2.61321 -24.863 -120
    endloop
  endfacet
  facet normal 0 -1 0
    outer loop
      vertex 2.61321 -24.863 -113.75
      vertex -2.61321 -24.863 -113.75
      vertex 2.61321 -24.863 -120
    endloop
  endfacet
  facet normal 0.207912 -0.978148 0
    outer loop
      vertex 2.61321 -24.863 -113.75
      vertex 2.61321 -24.863 -120
      vertex 7.72542 -23.7764 -120
    endloop
  endfacet
  facet normal 0.207912 -0.978148 0
    outer loop
      vertex 7.72542 -23.7764 -113.75
      vertex 2.61321 -24.863 -113.75
      vertex 7.72542 -23.7764 -120
    endloop
  endfacet
  facet normal 0.406737 -0.913545 0
    outer loop
      vertex 7.72542 -23.7764 -113.75
      vertex 7.72542 -23.7764 -120
      vertex 12.5 -21.6506 -120
    endloop
  endfacet
  facet normal 0.406737 -0.913545 0
    outer loop
      vertex 12.5 -21.6506 -113.75
      vertex 7.72542 -23.7764 -113.75
      vertex 12.5 -21.6506 -120
    endloop
  endfacet
  facet normal 0.587785 -0.809017 0
    outer loop
      vertex 12.5 -21.6506 -113.75
      vertex 12.5 -21.6506 -120
      vertex 16.7283 -18.5786 -120
    endloop
  endfacet
  facet normal 0.587785 -0.809017 0
    outer loop
      vertex 16.7283 -18.5786 -113.75
      vertex 12.5 -21.6506 -113.75
      vertex 16.7283 -18.5786 -120
    endloop
  endfacet
  facet normal 0.743145 -0.669131 0
    outer loop
      vertex 16.7283 -18.5786 -113.75
      vertex 16.7283 -18.5786 -120
      vertex 20.2254 -14.6946 -120
    endloop
  endfacet
  facet normal 0.743145 -0.669131 0
    outer loop
      vertex 20.2254 -14.6946 -113.75
      vertex 16.7283 -18.5786 -113.75
      vertex 20.2254 -14.6946 -120
    endloop
  endfacet
  facet normal 0.866025 -0.5 0
    outer loop
      vertex 20.2254 -14.6946 -113.75
      vertex 20.2254 -14.6946 -120
      vertex 22.8386 -10.1684 -120
    endloop
  endfacet
  facet normal 0.866025 -0.5 0
    outer loop
      vertex 22.8386 -10.1684 -113.75
      vertex 20.2254 -14.6946 -113.75
      vertex 22.8386 -10.1684 -120
    endloop
  endfacet
  facet normal 0.951056 -0.309017 0
    outer loop
      vertex 22.8386 -10.1684 -113.75
      vertex 22.8386 -10.1684 -120
      vertex 24.4537 -5.19779 -120
    endloop
  endfacet
  facet normal 0.951056 -0.309017 0
    outer loop
      vertex 24.4537 -5.19779 -113.75
      vertex 22.8386 -10.1684 -113.75
      vertex 24.4537 -5.19779 -120
    endloop
  endfacet
  facet normal 0.994522 -0.104528 0
    outer loop
      vertex 24.4537 -5.19779 -113.75
      vertex 24.4537 -5.19779 -120
      vertex 25 0 -120
    endloop
  endfacet
  facet normal 0.994522 -0.104528 0
    outer loop
      vertex 25 0 -113.75
      vertex 24.4537 -5.19779 -113.75
      vertex 25 0 -120
    endloop
  endfacet
  facet normal 0.994522 0.104528 0
    outer loop
      vertex 25 0 -120
      vertex 24.4537 5.19779 -120
      vertex 24.4537 5.19779 -113.75
    endloop
  endfacet
  facet normal 0.994522 0.104528 0
    outer loop
      vertex 25 0 -113.75
      vertex 25 0 -120
      vertex 24.4537 5.19779 -113.75
    endloop
  endfacet
  facet normal 0.951056 0.309017 0
    outer loop
      vertex 24.4537 5.19779 -120
      vertex 22.8386 10.1684 -120
      vertex 22.8386 10.1684 -113.75
    endloop
  endfacet
  facet normal 0.951056 0.309017 0
    outer loop
      vertex 24.4537 5.19779 -113.75
      vertex 24.4537 5.19779 -120
      vertex 22.8386 10.1684 -113.75
    endloop
  endfacet
  facet normal 0.866025 0.5 0
    outer loop
      vertex 22.8386 10.1684 -120
      vertex 20.2254 14.6946 -120
      vertex 20.2254 14.6946 -113.75
    endloop
  endfacet
  facet normal 0.866025 0.5 0
    outer loop
      vertex 22.8386 10.1684 -113.75
      vertex 22.8386 10.1684 -120
      vertex 20.2254 14.6946 -113.75
    endloop
  endfacet
  facet normal 0.743145 0.669131 0
    outer loop
      vertex 20.2254 14.6946 -120
      vertex 16.7283 18.5786 -120
      vertex 16.7283 18.5786 -113.75
    endloop
  endfacet
  facet normal 0.743145 0.669131 0
    outer loop
      vertex 20.2254 14.6946 -113.75
      vertex 20.2254 14.6946 -120
      vertex 16.7283 18.5786 -113.75
    endloop
  endfacet
  facet normal 0.587785 0.809017 0
    outer loop
      vertex 12.5 21.6506 -120
      vertex 12.5 21.6506 -113.75
      vertex 16.7283 18.5786 -120
    endloop
  endfacet
  facet normal 0.587785 0.809017 0
    outer loop
      vertex 16.7283 18.5786 -120
      vertex 12.5 21.6506 -113.75
      vertex 16.7283 18.5786 -113.75
    endloop
  endfacet
  facet normal 0.406737 0.913545 0
    outer loop
      vertex 7.72542 23.7764 -120
      vertex 7.72542 23.7764 -113.75
      vertex 12.5 21.6506 -120
    endloop
  endfacet
  facet normal 0.406737 0.913545 0
    outer loop
      vertex 12.5 21.6506 -120
      vertex 7.72542 23.7764 -113.75
      vertex 12.5 21.6506 -113.75
    endloop
  endfacet
  facet normal 0.207912 0.978148 0
    outer loop
      vertex 2.61321 24.863 -120
      vertex 2.61321 24.863 -113.75
      vertex 7.72542 23.7764 -120
    endloop
  endfacet
  facet normal 0.207912 0.978148 0
    outer loop
      vertex 7.72542 23.7764 -120
      vertex 2.61321 24.863 -113.75
      vertex 7.72542 23.7764 -113.75
    endloop
  endfacet
  facet normal 0 1 0
    outer loop
      vertex -2.61321 24.863 -120
      vertex -2.61321 24.863 -113.75
      vertex 2.61321 24.863 -120
    endloop
  endfacet
  facet normal 0 1 0
    outer loop
      vertex 2.61321 24.863 -120
      vertex -2.61321 24.863 -113.75
      vertex 2.61321 24.863 -113.75
    endloop
  endfacet
  facet normal -0.207912 0.978148 0
    outer loop
      vertex -7.72542 23.7764 -120
      vertex -7.72542 23.7764 -113.75
      vertex -2.61321 24.863 -120
    endloop
  endfacet
  facet normal -0.207912 0.978148 0
    outer loop
      vertex -2.61321 24.863 -120
      vertex -7.72542 23.7764 -113.75
      vertex -2.61321 24.863 -113.75
    endloop
  endfacet
  facet normal -0.406737 0.913545 0
    outer loop
      vertex -12.5 21.6506 -120
      vertex -12.5 21.6506 -113.75
      vertex -7.72542 23.7764 -120
    endloop
  endfacet
  facet normal -0.406737 0.913545 0
    outer loop
      vertex -7.72542 23.7764 -120
      vertex -12.5 21.6506 -113.75
      vertex -7.72542 23.7764 -113.75
    endloop
  endfacet
  facet normal -0.587785 0.809017 0
    outer loop
      vertex -16.7283 18.5786 -120
      vertex -16.7283 18.5786 -113.75
      vertex -12.5 21.6506 -120
    endloop
  endfacet
  facet normal -0.587785 0.809017 0
    outer loop
      vertex -12.5 21.6506 -120
      vertex -16.7283 18.5786 -113.75
      vertex -12.5 21.6506 -113.75
    endloop
  endfacet
  facet normal -0.743145 0.669131 0
    outer loop
      vertex -20.2254 14.6946 -120
      vertex -20.2254 14.6946 -113.75
      vertex -16.7283 18.5786 -120
    endloop
  endfacet
  facet normal -0.743145 0.669131 0
    outer loop
      vertex -16.7283 18.5786 -120
      vertex -20.2254 14.6946 -113.75
      vertex -16.7283 18.5786 -113.75
    endloop
  endfacet
  facet normal -0.866025 0.5 0
    outer loop
      vertex -22.8386 10.1684 -120
      vertex -22.8386 10.1684 -113.75
      vertex -20.2254 14.6946 -120
    endloop
  endfacet
  facet normal -0.866025 0.5 0
    outer loop
      vertex -20.2254 14.6946 -120
      vertex -22.8386 10.1684 -113.75
      vertex -20.2254 14.6946 -113.75
    endloop
  endfacet
  facet normal -0.951056 0.309017 0
    outer loop
      vertex -24.4537 5.19779 -120
      vertex -24.4537 5.19779 -113.75
      vertex -22.8386 10.1684 -120
    endloop
  endfacet
  facet normal -0.951056 0.309017 0
    outer loop
      vertex -22.8386 10.1684 -120
      vertex -24.4537 5.19779 -113.75
      vertex -22.8386 10.1684 -113.75
    endloop
  endfacet
  facet normal 0 0 1
    outer loop
      vertex -24.4537 5.19779 -113.75
      vertex -25 0 -113.75
      vertex -24.4537 -5.19779 -113.75
    endloop
  endfacet
  facet normal 0 0 1
    outer loop
      vertex -20.2254 -14.6946 -113.75
      vertex -24.4537 5.19779 -113.75
      vertex -22.8386 -10.1684 -113.75
    endloop
  endfacet
  facet normal 0 0 1
    outer loop
      vertex -22.8386 -10.1684 -113.75
      vertex -24.4537 5.19779 -113.75
      vertex -24.4537 -5.19779 -113.75
    endloop
  endfacet
  facet normal 0 0 1
    outer loop
      vertex -16.7283 -18.5786 -113.75
      vertex -24.4537 5.19779 -113.75
      vertex -20.2254 -14.6946 -113.75
    endloop
  endfacet
  facet normal 0 0 1
    outer loop
      vertex -22.5 -3.67394e-15 -113.75
      vertex -24.4537 5.19779 -113.75
      vertex -16.7283 -18.5786 -113.75
    endloop
  endfacet
  facet normal 0 0 1
    outer loop
      vertex -21.7678 1.76777 -113.75
      vertex -20 2.5 -113.75
      vertex -24.4537 5.19779 -113.75
    endloop
  endfacet
  facet normal 0 0 1
    outer loop
      vertex 16.1803 -11.7557 -113.75
      vertex 13.3826 -14.8629 -113.75
      vertex 20.2254 -14.6946 -113.75
    endloop
  endfacet
  facet normal 0 0 1
    outer loop
      vertex 18.2709 8.13473 -113.75
      vertex 19.563 4.15823 -113.75
      vertex 24.4537 5.19779 -113.75
    endloop
  endfacet
  facet normal 0 0 1
    outer loop
      vertex 16.1803 11.7557 -113.75
      vertex 18.2709 8.13473 -113.75
      vertex 22.8386 10.1684 -113.75
    endloop
  endfacet
  facet normal 0 0 1
    outer loop
      vertex -18.2709 8.13473 -113.75
      vertex -16.1803 11.7557 -113.75
      vertex -24.4537 5.19779 -113.75
    endloop
  endfacet
  facet normal 0 0 1
    outer loop
      vertex -2.5 20 -113.75
      vertex -1.76777 21.7678 -113.75
      vertex -6.18034 19.0211 -113.75
    endloop
  endfacet
  facet normal 0 0 1
    outer loop
      vertex -1.76777 21.7678 -113.75
      vertex 0 22.5 -113.75
      vertex 2.61321 24.863 -113.75
    endloop
  endfacet
  facet normal 0 0 1
    outer loop
      vertex -13.3826 14.8629 -113.75
      vertex -10 17.3205 -113.75
      vertex -2.61321 24.863 -113.75
    endloop
  endfacet
  facet normal 0 0 1
    outer loop
      vertex -7.72542 23.7764 -113.75
      vertex -24.4537 5.19779 -113.75
      vertex -2.61321 24.863 -113.75
    endloop
  endfacet
  facet normal 0 0 1
    outer loop
      vertex -12.5 21.6506 -113.75
      vertex -24.4537 5.19779 -113.75
      vertex -7.72542 23.7764 -113.75
    endloop
  endfacet
  facet normal 0 0 1
    outer loop
      vertex -16.7283 18.5786 -113.75
      vertex -24.4537 5.19779 -113.75
      vertex -12.5 21.6506 -113.75
    endloop
  endfacet
  facet normal 0 0 1
    outer loop
      vertex -20.2254 14.6946 -113.75
      vertex -24.4537 5.19779 -113.75
      vertex -16.7283 18.5786 -113.75
    endloop
  endfacet
  facet normal 0 0 1
    outer loop
      vertex -22.8386 10.1684 -113.75
      vertex -24.4537 5.19779 -113.75
      vertex -20.2254 14.6946 -113.75
    endloop
  endfacet
  facet normal 0 0 1
    outer loop
      vertex -12.5 -21.6506 -113.75
      vertex -21.7678 -1.76777 -113.75
      vertex -16.7283 -18.5786 -113.75
    endloop
  endfacet
  facet normal 0 0 1
    outer loop
      vertex -21.7678 -1.76777 -113.75
      vertex -22.5 -3.67394e-15 -113.75
      vertex -16.7283 -18.5786 -113.75
    endloop
  endfacet
  facet normal 0 0 1
    outer loop
      vertex -2.5 -20 -113.75
      vertex -6.18034 -19.0211 -113.75
      vertex -1.76777 -21.7678 -113.75
    endloop
  endfacet
  facet normal 0 0 1
    outer loop
      vertex 6.18034 -19.0211 -113.75
      vertex 2.42516 -19.8193 -113.75
      vertex 7.72542 -23.7764 -113.75
    endloop
  endfacet
  facet normal 0 0 1
    outer loop
      vertex -19.7482 2.3957 -113.75
      vertex -24.4537 5.19779 -113.75
      vertex -20 2.5 -113.75
    endloop
  endfacet
  facet normal 0 0 1
    outer loop
      vertex 10 -17.3205 -113.75
      vertex 6.18034 -19.0211 -113.75
      vertex 12.5 -21.6506 -113.75
    endloop
  endfacet
  facet normal 0 0 1
    outer loop
      vertex 18.2709 -8.13473 -113.75
      vertex 16.1803 -11.7557 -113.75
      vertex 22.8386 -10.1684 -113.75
    endloop
  endfacet
  facet normal 0 0 1
    outer loop
      vertex 10 17.3205 -113.75
      vertex 13.3826 14.8629 -113.75
      vertex 16.7283 18.5786 -113.75
    endloop
  endfacet
  facet normal 0 0 1
    outer loop
      vertex 21.7678 1.76777 -113.75
      vertex 22.5 1.22465e-15 -113.75
      vertex 25 0 -113.75
    endloop
  endfacet
  facet normal 0 0 1
    outer loop
      vertex -13.3826 14.8629 -113.75
      vertex -24.4537 5.19779 -113.75
      vertex -16.1803 11.7557 -113.75
    endloop
  endfacet
  facet normal 0 0 1
    outer loop
      vertex -6.18034 19.0211 -113.75
      vertex -1.76777 21.7678 -113.75
      vertex 2.61321 24.863 -113.75
    endloop
  endfacet
  facet normal 0 0 1
    outer loop
      vertex -2.61321 24.863 -113.75
      vertex -24.4537 5.19779 -113.75
      vertex -13.3826 14.8629 -113.75
    endloop
  endfacet
  facet normal 0 0 1
    outer loop
      vertex -2.61321 24.863 -113.75
      vertex -10 17.3205 -113.75
      vertex 2.61321 24.863 -113.75
    endloop
  endfacet
  facet normal 0 0 1
    outer loop
      vertex -10 17.3205 -113.75
      vertex -6.18034 19.0211 -113.75
      vertex 2.61321 24.863 -113.75
    endloop
  endfacet
  facet normal 0 0 1
    outer loop
      vertex -6.18034 19.0211 -113.75
      vertex -2.42516 19.8193 -113.75
      vertex -2.5 20 -113.75
    endloop
  endfacet
  facet normal 0 0 1
    outer loop
      vertex 1.76777 21.7678 -113.75
      vertex 2.5 20 -113.75
      vertex 7.72542 23.7764 -113.75
    endloop
  endfacet
  facet normal 0 0 1
    outer loop
      vertex 2.61321 24.863 -113.75
      vertex 1.76777 21.7678 -113.75
      vertex 7.72542 23.7764 -113.75
    endloop
  endfacet
  facet normal 0 0 1
    outer loop
      vertex 7.72542 23.7764 -113.75
      vertex 2.5 20 -113.75
      vertex 12.5 21.6506 -113.75
    endloop
  endfacet
  facet normal 0 0 1
    outer loop
      vertex 2.5 20 -113.75
      vertex 2.42516 19.8193 -113.75
      vertex 12.5 21.6506 -113.75
    endloop
  endfacet
  facet normal 0 0 1
    outer loop
      vertex 2.42516 19.8193 -113.75
      vertex 6.18034 19.0211 -113.75
      vertex 12.5 21.6506 -113.75
    endloop
  endfacet
  facet normal 0 0 1
    outer loop
      vertex 12.5 21.6506 -113.75
      vertex 10 17.3205 -113.75
      vertex 16.7283 18.5786 -113.75
    endloop
  endfacet
  facet normal 0 0 1
    outer loop
      vertex 0 22.5 -113.75
      vertex 1.76777 21.7678 -113.75
      vertex 2.61321 24.863 -113.75
    endloop
  endfacet
  facet normal 0 0 1
    outer loop
      vertex 16.7283 18.5786 -113.75
      vertex 13.3826 14.8629 -113.75
      vertex 20.2254 14.6946 -113.75
    endloop
  endfacet
  facet normal 0 0 1
    outer loop
      vertex 20.2254 14.6946 -113.75
      vertex 16.1803 11.7557 -113.75
      vertex 22.8386 10.1684 -113.75
    endloop
  endfacet
  facet normal 0 0 1
    outer loop
      vertex 6.18034 19.0211 -113.75
      vertex 10 17.3205 -113.75
      vertex 12.5 21.6506 -113.75
    endloop
  endfacet
  facet normal 0 0 1
    outer loop
      vertex 22.8386 10.1684 -113.75
      vertex 18.2709 8.13473 -113.75
      vertex 24.4537 5.19779 -113.75
    endloop
  endfacet
  facet normal 0 0 1
    outer loop
      vertex 24.4537 5.19779 -113.75
      vertex 19.563 4.15823 -113.75
      vertex 25 0 -113.75
    endloop
  endfacet
  facet normal 0 0 1
    outer loop
      vertex 13.3826 -14.8629 -113.75
      vertex 10 -17.3205 -113.75
      vertex 16.7283 -18.5786 -113.75
    endloop
  endfacet
  facet normal 0 0 1
    outer loop
      vertex 19.563 4.15823 -113.75
      vertex 19.7482 2.3957 -113.75
      vertex 20 2.5 -113.75
    endloop
  endfacet
  facet normal 0 0 1
    outer loop
      vertex 19.563 4.15823 -113.75
      vertex 21.7678 1.76777 -113.75
      vertex 25 0 -113.75
    endloop
  endfacet
  facet normal 0 0 1
    outer loop
      vertex 19.563 4.15823 -113.75
      vertex 20 2.5 -113.75
      vertex 21.7678 1.76777 -113.75
    endloop
  endfacet
  facet normal 0 0 1
    outer loop
      vertex 25 0 -113.75
      vertex 22.5 1.22465e-15 -113.75
      vertex 24.4537 -5.19779 -113.75
    endloop
  endfacet
  facet normal 0 0 1
    outer loop
      vertex 22.5 1.22465e-15 -113.75
      vertex 21.7678 -1.76777 -113.75
      vertex 24.4537 -5.19779 -113.75
    endloop
  endfacet
  facet normal 0 0 1
    outer loop
      vertex 21.7678 -1.76777 -113.75
      vertex 20 -2.5 -113.75
      vertex 24.4537 -5.19779 -113.75
    endloop
  endfacet
  facet normal 0 0 1
    outer loop
      vertex 24.4537 -5.19779 -113.75
      vertex 19.563 -4.15823 -113.75
      vertex 22.8386 -10.1684 -113.75
    endloop
  endfacet
  facet normal 0 0 1
    outer loop
      vertex 13.3826 14.8629 -113.75
      vertex 16.1803 11.7557 -113.75
      vertex 20.2254 14.6946 -113.75
    endloop
  endfacet
  facet normal 0 0 1
    outer loop
      vertex 19.563 -4.15823 -113.75
      vertex 18.2709 -8.13473 -113.75
      vertex 22.8386 -10.1684 -113.75
    endloop
  endfacet
  facet normal 0 0 1
    outer loop
      vertex 22.8386 -10.1684 -113.75
      vertex 16.1803 -11.7557 -113.75
      vertex 20.2254 -14.6946 -113.75
    endloop
  endfacet
  facet normal 0 0 1
    outer loop
      vertex 20.2254 -14.6946 -113.75
      vertex 13.3826 -14.8629 -113.75
      vertex 16.7283 -18.5786 -113.75
    endloop
  endfacet
  facet normal 0 0 1
    outer loop
      vertex 16.7283 -18.5786 -113.75
      vertex 10 -17.3205 -113.75
      vertex 12.5 -21.6506 -113.75
    endloop
  endfacet
  facet normal 0 0 1
    outer loop
      vertex 12.5 -21.6506 -113.75
      vertex 6.18034 -19.0211 -113.75
      vertex 7.72542 -23.7764 -113.75
    endloop
  endfacet
  facet normal 0 0 1
    outer loop
      vertex 7.72542 -23.7764 -113.75
      vertex 2.5 -20 -113.75
      vertex 2.61321 -24.863 -113.75
    endloop
  endfacet
  facet normal 0 0 1
    outer loop
      vertex 7.72542 -23.7764 -113.75
      vertex 2.42516 -19.8193 -113.75
      vertex 2.5 -20 -113.75
    endloop
  endfacet
  facet normal 0 0 1
    outer loop
      vertex 2.61321 -24.863 -113.75
      vertex 2.44929e-15 -22.5 -113.75
      vertex -2.61321 -24.863 -113.75
    endloop
  endfacet
  facet normal 0 0 1
    outer loop
      vertex 2.44929e-15 -22.5 -113.75
      vertex -1.76777 -21.7678 -113.75
      vertex -2.61321 -24.863 -113.75
    endloop
  endfacet
  facet normal 0 0 1
    outer loop
      vertex -6.18034 -19.0211 -113.75
      vertex -10 -17.3205 -113.75
      vertex -2.61321 -24.863 -113.75
    endloop
  endfacet
  facet normal 0 0 1
    outer loop
      vertex -10 -17.3205 -113.75
      vertex -13.3826 -14.8629 -113.75
      vertex -7.72542 -23.7764 -113.75
    endloop
  endfacet
  facet normal 0 0 1
    outer loop
      vertex -1.76777 -21.7678 -113.75
      vertex -6.18034 -19.0211 -113.75
      vertex -2.61321 -24.863 -113.75
    endloop
  endfacet
  facet normal 0 0 1
    outer loop
      vertex -2.61321 -24.863 -113.75
      vertex -10 -17.3205 -113.75
      vertex -7.72542 -23.7764 -113.75
    endloop
  endfacet
  facet normal 0 0 1
    outer loop
      vertex 2.5 -20 -113.75
      vertex 1.76777 -21.7678 -113.75
      vertex 2.61321 -24.863 -113.75
    endloop
  endfacet
  facet normal 0 0 1
    outer loop
      vertex -7.72542 -23.7764 -113.75
      vertex -13.3826 -14.8629 -113.75
      vertex -12.5 -21.6506 -113.75
    endloop
  endfacet
  facet normal 0 0 1
    outer loop
      vertex -22.5 -3.67394e-15 -113.75
      vertex -21.7678 1.76777 -113.75
      vertex -24.4537 5.19779 -113.75
    endloop
  endfacet
  facet normal 0 0 1
    outer loop
      vertex -13.3826 -14.8629 -113.75
      vertex -16.1803 -11.7557 -113.75
      vertex -12.5 -21.6506 -113.75
    endloop
  endfacet
  facet normal 0 0 1
    outer loop
      vertex -16.1803 -11.7557 -113.75
      vertex -18.2709 -8.13473 -113.75
      vertex -12.5 -21.6506 -113.75
    endloop
  endfacet
  facet normal 0 0 1
    outer loop
      vertex -19.563 -4.15823 -113.75
      vertex -19.7482 -2.3957 -113.75
      vertex -20 -2.5 -113.75
    endloop
  endfacet
  facet normal 0 0 1
    outer loop
      vertex -2.42516 -19.8193 -113.75
      vertex -6.18034 -19.0211 -113.75
      vertex -2.5 -20 -113.75
    endloop
  endfacet
  facet normal 0 0 1
    outer loop
      vertex -18.2709 -8.13473 -113.75
      vertex -21.7678 -1.76777 -113.75
      vertex -12.5 -21.6506 -113.75
    endloop
  endfacet
  facet normal 0 0 1
    outer loop
      vertex -19.563 -4.15823 -113.75
      vertex -21.7678 -1.76777 -113.75
      vertex -18.2709 -8.13473 -113.75
    endloop
  endfacet
  facet normal 0 0 1
    outer loop
      vertex -20 -2.5 -113.75
      vertex -21.7678 -1.76777 -113.75
      vertex -19.563 -4.15823 -113.75
    endloop
  endfacet
  facet normal 0 0 1
    outer loop
      vertex 1.76777 -21.7678 -113.75
      vertex 2.44929e-15 -22.5 -113.75
      vertex 2.61321 -24.863 -113.75
    endloop
  endfacet
  facet normal 0 0 1
    outer loop
      vertex -19.7482 2.3957 -113.75
      vertex -19.563 4.15823 -113.75
      vertex -24.4537 5.19779 -113.75
    endloop
  endfacet
  facet normal 0 0 1
    outer loop
      vertex 19.7482 -2.3957 -113.75
      vertex 19.563 -4.15823 -113.75
      vertex 24.4537 -5.19779 -113.75
    endloop
  endfacet
  facet normal 0 0 1
    outer loop
      vertex 19.7482 -2.3957 -113.75
      vertex 24.4537 -5.19779 -113.75
      vertex 20 -2.5 -113.75
    endloop
  endfacet
  facet normal 0 0 1
    outer loop
      vertex -19.563 4.15823 -113.75
      vertex -18.2709 8.13473 -113.75
      vertex -24.4537 5.19779 -113.75
    endloop
  endfacet
  facet normal -0.92388 -0.382683 0
    outer loop
      vertex -22.5 -3.67394e-15 -113.75
      vertex -21.7678 -1.76777 -113.75
      vertex -22.5 -3.67394e-15 -70
    endloop
  endfacet
  facet normal -0.92388 -0.382683 0
    outer loop
      vertex -22.5 -3.67394e-15 -70
      vertex -21.7678 -1.76777 -113.75
      vertex -21.7678 -1.76777 -70
    endloop
  endfacet
  facet normal -0.382683 -0.92388 0
    outer loop
      vertex -21.7678 -1.76777 -70
      vertex -21.7678 -1.76777 -113.75
      vertex -20 -2.5 -113.75
    endloop
  endfacet
  facet normal -0.382683 -0.92388 0
    outer loop
      vertex -20 -2.5 -70
      vertex -21.7678 -1.76777 -70
      vertex -20 -2.5 -113.75
    endloop
  endfacet
  facet normal 0.382683 -0.92388 0
    outer loop
      vertex -20 -2.5 -70
      vertex -20 -2.5 -113.75
      vertex -19.7482 -2.3957 -113.75
    endloop
  endfacet
  facet normal 0.382683 -0.92388 0
    outer loop
      vertex -18.2322 -1.76777 -118.75
      vertex -20 -2.5 -70
      vertex -19.7482 -2.3957 -113.75
    endloop
  endfacet
  facet normal 0.382683 -0.92388 0
    outer loop
      vertex -19.7482 -2.3957 -118.75
      vertex -18.2322 -1.76777 -118.75
      vertex -19.7482 -2.3957 -113.75
    endloop
  endfacet
  facet normal 0.382683 -0.92388 0
    outer loop
      vertex -18.2322 -1.76777 -118.75
      vertex -18.2322 -1.76777 -70
      vertex -20 -2.5 -70
    endloop
  endfacet
  facet normal 0.994522 0.104528 0
    outer loop
      vertex -19.7482 -2.3957 -113.75
      vertex -19.563 -4.15823 -113.75
      vertex -19.563 -4.15823 -118.75
    endloop
  endfacet
  facet normal 0.994522 0.104528 0
    outer loop
      vertex -19.7482 -2.3957 -118.75
      vertex -19.7482 -2.3957 -113.75
      vertex -19.563 -4.15823 -118.75
    endloop
  endfacet
  facet normal 0.951057 0.309017 0
    outer loop
      vertex -19.563 -4.15823 -113.75
      vertex -18.2709 -8.13473 -113.75
      vertex -18.2709 -8.13473 -118.75
    endloop
  endfacet
  facet normal 0.951057 0.309017 0
    outer loop
      vertex -19.563 -4.15823 -118.75
      vertex -19.563 -4.15823 -113.75
      vertex -18.2709 -8.13473 -118.75
    endloop
  endfacet
  facet normal 0.866025 0.5 0
    outer loop
      vertex -18.2709 -8.13473 -113.75
      vertex -16.1803 -11.7557 -113.75
      vertex -16.1803 -11.7557 -118.75
    endloop
  endfacet
  facet normal 0.866025 0.5 0
    outer loop
      vertex -18.2709 -8.13473 -118.75
      vertex -18.2709 -8.13473 -113.75
      vertex -16.1803 -11.7557 -118.75
    endloop
  endfacet
  facet normal 0.743145 0.669131 0
    outer loop
      vertex -16.1803 -11.7557 -113.75
      vertex -13.3826 -14.8629 -113.75
      vertex -13.3826 -14.8629 -118.75
    endloop
  endfacet
  facet normal 0.743145 0.669131 0
    outer loop
      vertex -16.1803 -11.7557 -118.75
      vertex -16.1803 -11.7557 -113.75
      vertex -13.3826 -14.8629 -118.75
    endloop
  endfacet
  facet normal 0.587785 0.809017 0
    outer loop
      vertex -10 -17.3205 -113.75
      vertex -10 -17.3205 -118.75
      vertex -13.3826 -14.8629 -113.75
    endloop
  endfacet
  facet normal 0.587785 0.809017 0
    outer loop
      vertex -13.3826 -14.8629 -113.75
      vertex -10 -17.3205 -118.75
      vertex -13.3826 -14.8629 -118.75
    endloop
  endfacet
  facet normal 0.406737 0.913545 0
    outer loop
      vertex -6.18034 -19.0211 -113.75
      vertex -6.18034 -19.0211 -118.75
      vertex -10 -17.3205 -113.75
    endloop
  endfacet
  facet normal 0.406737 0.913545 0
    outer loop
      vertex -10 -17.3205 -113.75
      vertex -6.18034 -19.0211 -118.75
      vertex -10 -17.3205 -118.75
    endloop
  endfacet
  facet normal 0.207912 0.978148 0
    outer loop
      vertex -2.42516 -19.8193 -113.75
      vertex -2.42516 -19.8193 -118.75
      vertex -6.18034 -19.0211 -113.75
    endloop
  endfacet
  facet normal 0.207912 0.978148 0
    outer loop
      vertex -6.18034 -19.0211 -113.75
      vertex -2.42516 -19.8193 -118.75
      vertex -6.18034 -19.0211 -118.75
    endloop
  endfacet
  facet normal -0.92388 0.382683 0
    outer loop
      vertex -2.5 -20 -113.75
      vertex -2.5 -20 -70
      vertex -2.42516 -19.8193 -113.75
    endloop
  endfacet
  facet normal -0.92388 0.382683 0
    outer loop
      vertex -2.42516 -19.8193 -113.75
      vertex -2.5 -20 -70
      vertex -1.76777 -18.2322 -70
    endloop
  endfacet
  facet normal -0.92388 0.382683 0
    outer loop
      vertex -2.42516 -19.8193 -113.75
      vertex -1.76777 -18.2322 -70
      vertex -1.76777 -18.2322 -118.75
    endloop
  endfacet
  facet normal -0.92388 0.382683 0
    outer loop
      vertex -2.42516 -19.8193 -113.75
      vertex -1.76777 -18.2322 -118.75
      vertex -2.42516 -19.8193 -118.75
    endloop
  endfacet
  facet normal -0.92388 -0.382683 0
    outer loop
      vertex -2.5 -20 -113.75
      vertex -1.76777 -21.7678 -113.75
      vertex -2.5 -20 -70
    endloop
  endfacet
  facet normal -0.92388 -0.382683 0
    outer loop
      vertex -2.5 -20 -70
      vertex -1.76777 -21.7678 -113.75
      vertex -1.76777 -21.7678 -70
    endloop
  endfacet
  facet normal -0.382683 -0.92388 0
    outer loop
      vertex -1.76777 -21.7678 -70
      vertex -1.76777 -21.7678 -113.75
      vertex 2.44929e-15 -22.5 -113.75
    endloop
  endfacet
  facet normal -0.382683 -0.92388 0
    outer loop
      vertex 2.44929e-15 -22.5 -70
      vertex -1.76777 -21.7678 -70
      vertex 2.44929e-15 -22.5 -113.75
    endloop
  endfacet
  facet normal 0.382683 -0.92388 0
    outer loop
      vertex 2.44929e-15 -22.5 -70
      vertex 2.44929e-15 -22.5 -113.75
      vertex 1.76777 -21.7678 -113.75
    endloop
  endfacet
  facet normal 0.382683 -0.92388 0
    outer loop
      vertex 1.76777 -21.7678 -70
      vertex 2.44929e-15 -22.5 -70
      vertex 1.76777 -21.7678 -113.75
    endloop
  endfacet
  facet normal 0.92388 -0.382683 0
    outer loop
      vertex 1.76777 -21.7678 -70
      vertex 1.76777 -21.7678 -113.75
      vertex 2.5 -20 -113.75
    endloop
  endfacet
  facet normal 0.92388 -0.382683 0
    outer loop
      vertex 2.5 -20 -70
      vertex 1.76777 -21.7678 -70
      vertex 2.5 -20 -113.75
    endloop
  endfacet
  facet normal 0.92388 0.382683 0
    outer loop
      vertex 2.42516 -19.8193 -118.75
      vertex 1.76777 -18.2322 -118.75
      vertex 1.76777 -18.2322 -70
    endloop
  endfacet
  facet normal 0.92388 0.382683 0
    outer loop
      vertex 2.42516 -19.8193 -113.75
      vertex 2.42516 -19.8193 -118.75
      vertex 1.76777 -18.2322 -70
    endloop
  endfacet
  facet normal 0.92388 0.382683 0
    outer loop
      vertex 2.5 -20 -70
      vertex 2.42516 -19.8193 -113.75
      vertex 1.76777 -18.2322 -70
    endloop
  endfacet
  facet normal 0.92388 0.382683 0
    outer loop
      vertex 2.5 -20 -113.75
      vertex 2.42516 -19.8193 -113.75
      vertex 2.5 -20 -70
    endloop
  endfacet
  facet normal -0.207912 0.978148 0
    outer loop
      vertex 6.18034 -19.0211 -113.75
      vertex 6.18034 -19.0211 -118.75
      vertex 2.42516 -19.8193 -113.75
    endloop
  endfacet
  facet normal -0.207912 0.978148 0
    outer loop
      vertex 2.42516 -19.8193 -113.75
      vertex 6.18034 -19.0211 -118.75
      vertex 2.42516 -19.8193 -118.75
    endloop
  endfacet
  facet normal -0.406737 0.913545 0
    outer loop
      vertex 10 -17.3205 -113.75
      vertex 10 -17.3205 -118.75
      vertex 6.18034 -19.0211 -113.75
    endloop
  endfacet
  facet normal -0.406737 0.913545 0
    outer loop
      vertex 6.18034 -19.0211 -113.75
      vertex 10 -17.3205 -118.75
      vertex 6.18034 -19.0211 -118.75
    endloop
  endfacet
  facet normal -0.587785 0.809017 0
    outer loop
      vertex 13.3826 -14.8629 -113.75
      vertex 13.3826 -14.8629 -118.75
      vertex 10 -17.3205 -113.75
    endloop
  endfacet
  facet normal -0.587785 0.809017 0
    outer loop
      vertex 10 -17.3205 -113.75
      vertex 13.3826 -14.8629 -118.75
      vertex 10 -17.3205 -118.75
    endloop
  endfacet
  facet normal -0.743145 0.669131 0
    outer loop
      vertex 16.1803 -11.7557 -113.75
      vertex 16.1803 -11.7557 -118.75
      vertex 13.3826 -14.8629 -113.75
    endloop
  endfacet
  facet normal -0.743145 0.669131 0
    outer loop
      vertex 13.3826 -14.8629 -113.75
      vertex 16.1803 -11.7557 -118.75
      vertex 13.3826 -14.8629 -118.75
    endloop
  endfacet
  facet normal -0.866025 0.5 0
    outer loop
      vertex 18.2709 -8.13473 -113.75
      vertex 18.2709 -8.13473 -118.75
      vertex 16.1803 -11.7557 -113.75
    endloop
  endfacet
  facet normal -0.866025 0.5 0
    outer loop
      vertex 16.1803 -11.7557 -113.75
      vertex 18.2709 -8.13473 -118.75
      vertex 16.1803 -11.7557 -118.75
    endloop
  endfacet
  facet normal -0.951057 0.309017 0
    outer loop
      vertex 19.563 -4.15823 -113.75
      vertex 19.563 -4.15823 -118.75
      vertex 18.2709 -8.13473 -113.75
    endloop
  endfacet
  facet normal -0.951057 0.309017 0
    outer loop
      vertex 18.2709 -8.13473 -113.75
      vertex 19.563 -4.15823 -118.75
      vertex 18.2709 -8.13473 -118.75
    endloop
  endfacet
  facet normal -0.994522 0.104528 0
    outer loop
      vertex 19.7482 -2.3957 -113.75
      vertex 19.7482 -2.3957 -118.75
      vertex 19.563 -4.15823 -113.75
    endloop
  endfacet
  facet normal -0.994522 0.104528 0
    outer loop
      vertex 19.563 -4.15823 -113.75
      vertex 19.7482 -2.3957 -118.75
      vertex 19.563 -4.15823 -118.75
    endloop
  endfacet
  facet normal -0.382683 -0.92388 0
    outer loop
      vertex 18.2322 -1.76777 -70
      vertex 18.2322 -1.76777 -118.75
      vertex 19.7482 -2.3957 -118.75
    endloop
  endfacet
  facet normal -0.382683 -0.92388 0
    outer loop
      vertex 20 -2.5 -113.75
      vertex 18.2322 -1.76777 -70
      vertex 19.7482 -2.3957 -113.75
    endloop
  endfacet
  facet normal -0.382683 -0.92388 0
    outer loop
      vertex 19.7482 -2.3957 -113.75
      vertex 18.2322 -1.76777 -70
      vertex 19.7482 -2.3957 -118.75
    endloop
  endfacet
  facet normal -0.382683 -0.92388 0
    outer loop
      vertex 20 -2.5 -70
      vertex 18.2322 -1.76777 -70
      vertex 20 -2.5 -113.75
    endloop
  endfacet
  facet normal 0.382683 -0.92388 0
    outer loop
      vertex 20 -2.5 -70
      vertex 20 -2.5 -113.75
      vertex 21.7678 -1.76777 -113.75
    endloop
  endfacet
  facet normal 0.382683 -0.92388 0
    outer loop
      vertex 21.7678 -1.76777 -70
      vertex 20 -2.5 -70
      vertex 21.7678 -1.76777 -113.75
    endloop
  endfacet
  facet normal 0.92388 -0.382683 0
    outer loop
      vertex 21.7678 -1.76777 -70
      vertex 21.7678 -1.76777 -113.75
      vertex 22.5 1.22465e-15 -113.75
    endloop
  endfacet
  facet normal 0.92388 -0.382683 0
    outer loop
      vertex 22.5 1.22465e-15 -70
      vertex 21.7678 -1.76777 -70
      vertex 22.5 1.22465e-15 -113.75
    endloop
  endfacet
  facet normal 0.92388 0.382683 0
    outer loop
      vertex 22.5 1.22465e-15 -113.75
      vertex 21.7678 1.76777 -113.75
      vertex 21.7678 1.76777 -70
    endloop
  endfacet
  facet normal 0.92388 0.382683 0
    outer loop
      vertex 22.5 1.22465e-15 -70
      vertex 22.5 1.22465e-15 -113.75
      vertex 21.7678 1.76777 -70
    endloop
  endfacet
  facet normal 0.382683 0.92388 0
    outer loop
      vertex 20 2.5 -113.75
      vertex 20 2.5 -70
      vertex 21.7678 1.76777 -113.75
    endloop
  endfacet
  facet normal 0.382683 0.92388 0
    outer loop
      vertex 21.7678 1.76777 -113.75
      vertex 20 2.5 -70
      vertex 21.7678 1.76777 -70
    endloop
  endfacet
  facet normal -0.382683 0.92388 0
    outer loop
      vertex 18.2322 1.76777 -118.75
      vertex 18.2322 1.76777 -70
      vertex 19.7482 2.3957 -118.75
    endloop
  endfacet
  facet normal -0.382683 0.92388 0
    outer loop
      vertex 19.7482 2.3957 -113.75
      vertex 18.2322 1.76777 -70
      vertex 20 2.5 -70
    endloop
  endfacet
  facet normal -0.382683 0.92388 0
    outer loop
      vertex 19.7482 2.3957 -118.75
      vertex 18.2322 1.76777 -70
      vertex 19.7482 2.3957 -113.75
    endloop
  endfacet
  facet normal -0.382683 0.92388 0
    outer loop
      vertex 19.7482 2.3957 -113.75
      vertex 20 2.5 -70
      vertex 20 2.5 -113.75
    endloop
  endfacet
  facet normal -0.994522 -0.104528 0
    outer loop
      vertex 19.7482 2.3957 -113.75
      vertex 19.563 4.15823 -113.75
      vertex 19.7482 2.3957 -118.75
    endloop
  endfacet
  facet normal -0.994522 -0.104528 0
    outer loop
      vertex 19.7482 2.3957 -118.75
      vertex 19.563 4.15823 -113.75
      vertex 19.563 4.15823 -118.75
    endloop
  endfacet
  facet normal -0.951057 -0.309017 0
    outer loop
      vertex 19.563 4.15823 -113.75
      vertex 18.2709 8.13473 -113.75
      vertex 19.563 4.15823 -118.75
    endloop
  endfacet
  facet normal -0.951057 -0.309017 0
    outer loop
      vertex 19.563 4.15823 -118.75
      vertex 18.2709 8.13473 -113.75
      vertex 18.2709 8.13473 -118.75
    endloop
  endfacet
  facet normal -0.866025 -0.5 0
    outer loop
      vertex 18.2709 8.13473 -113.75
      vertex 16.1803 11.7557 -113.75
      vertex 18.2709 8.13473 -118.75
    endloop
  endfacet
  facet normal -0.866025 -0.5 0
    outer loop
      vertex 18.2709 8.13473 -118.75
      vertex 16.1803 11.7557 -113.75
      vertex 16.1803 11.7557 -118.75
    endloop
  endfacet
  facet normal -0.743145 -0.669131 0
    outer loop
      vertex 16.1803 11.7557 -113.75
      vertex 13.3826 14.8629 -113.75
      vertex 16.1803 11.7557 -118.75
    endloop
  endfacet
  facet normal -0.743145 -0.669131 0
    outer loop
      vertex 16.1803 11.7557 -118.75
      vertex 13.3826 14.8629 -113.75
      vertex 13.3826 14.8629 -118.75
    endloop
  endfacet
  facet normal -0.587785 -0.809017 0
    outer loop
      vertex 13.3826 14.8629 -118.75
      vertex 13.3826 14.8629 -113.75
      vertex 10 17.3205 -113.75
    endloop
  endfacet
  facet normal -0.587785 -0.809017 0
    outer loop
      vertex 10 17.3205 -118.75
      vertex 13.3826 14.8629 -118.75
      vertex 10 17.3205 -113.75
    endloop
  endfacet
  facet normal -0.406737 -0.913545 0
    outer loop
      vertex 10 17.3205 -118.75
      vertex 10 17.3205 -113.75
      vertex 6.18034 19.0211 -113.75
    endloop
  endfacet
  facet normal -0.406737 -0.913545 0
    outer loop
      vertex 6.18034 19.0211 -118.75
      vertex 10 17.3205 -118.75
      vertex 6.18034 19.0211 -113.75
    endloop
  endfacet
  facet normal -0.207912 -0.978148 0
    outer loop
      vertex 6.18034 19.0211 -118.75
      vertex 6.18034 19.0211 -113.75
      vertex 2.42516 19.8193 -113.75
    endloop
  endfacet
  facet normal -0.207912 -0.978148 0
    outer loop
      vertex 2.42516 19.8193 -118.75
      vertex 6.18034 19.0211 -118.75
      vertex 2.42516 19.8193 -113.75
    endloop
  endfacet
  facet normal 0.92388 -0.382683 0
    outer loop
      vertex 1.76777 18.2322 -70
      vertex 1.76777 18.2322 -118.75
      vertex 2.42516 19.8193 -118.75
    endloop
  endfacet
  facet normal 0.92388 -0.382683 0
    outer loop
      vertex 2.5 20 -113.75
      vertex 1.76777 18.2322 -70
      vertex 2.42516 19.8193 -113.75
    endloop
  endfacet
  facet normal 0.92388 -0.382683 0
    outer loop
      vertex 2.42516 19.8193 -113.75
      vertex 1.76777 18.2322 -70
      vertex 2.42516 19.8193 -118.75
    endloop
  endfacet
  facet normal 0.92388 -0.382683 0
    outer loop
      vertex 2.5 20 -70
      vertex 1.76777 18.2322 -70
      vertex 2.5 20 -113.75
    endloop
  endfacet
  facet normal 0.92388 0.382683 0
    outer loop
      vertex 2.5 20 -113.75
      vertex 1.76777 21.7678 -113.75
      vertex 1.76777 21.7678 -70
    endloop
  endfacet
  facet normal 0.92388 0.382683 0
    outer loop
      vertex 2.5 20 -70
      vertex 2.5 20 -113.75
      vertex 1.76777 21.7678 -70
    endloop
  endfacet
  facet normal 0.382683 0.92388 0
    outer loop
      vertex 0 22.5 -113.75
      vertex 0 22.5 -70
      vertex 1.76777 21.7678 -113.75
    endloop
  endfacet
  facet normal 0.382683 0.92388 0
    outer loop
      vertex 1.76777 21.7678 -113.75
      vertex 0 22.5 -70
      vertex 1.76777 21.7678 -70
    endloop
  endfacet
  facet normal -0.382683 0.92388 0
    outer loop
      vertex -1.76777 21.7678 -113.75
      vertex -1.76777 21.7678 -70
      vertex 0 22.5 -113.75
    endloop
  endfacet
  facet normal -0.382683 0.92388 0
    outer loop
      vertex 0 22.5 -113.75
      vertex -1.76777 21.7678 -70
      vertex 0 22.5 -70
    endloop
  endfacet
  facet normal -0.92388 0.382683 0
    outer loop
      vertex -2.5 20 -113.75
      vertex -2.5 20 -70
      vertex -1.76777 21.7678 -113.75
    endloop
  endfacet
  facet normal -0.92388 0.382683 0
    outer loop
      vertex -1.76777 21.7678 -113.75
      vertex -2.5 20 -70
      vertex -1.76777 21.7678 -70
    endloop
  endfacet
  facet normal -0.92388 -0.382683 0
    outer loop
      vertex -2.5 20 -113.75
      vertex -2.42516 19.8193 -113.75
      vertex -2.5 20 -70
    endloop
  endfacet
  facet normal -0.92388 -0.382683 0
    outer loop
      vertex -1.76777 18.2322 -118.75
      vertex -2.42516 19.8193 -113.75
      vertex -2.42516 19.8193 -118.75
    endloop
  endfacet
  facet normal -0.92388 -0.382683 0
    outer loop
      vertex -2.5 20 -70
      vertex -2.42516 19.8193 -113.75
      vertex -1.76777 18.2322 -118.75
    endloop
  endfacet
  facet normal -0.92388 -0.382683 0
    outer loop
      vertex -2.5 20 -70
      vertex -1.76777 18.2322 -118.75
      vertex -1.76777 18.2322 -70
    endloop
  endfacet
  facet normal 0.207912 -0.978148 0
    outer loop
      vertex -2.42516 19.8193 -118.75
      vertex -2.42516 19.8193 -113.75
      vertex -6.18034 19.0211 -113.75
    endloop
  endfacet
  facet normal 0.207912 -0.978148 0
    outer loop
      vertex -6.18034 19.0211 -118.75
      vertex -2.42516 19.8193 -118.75
      vertex -6.18034 19.0211 -113.75
    endloop
  endfacet
  facet normal 0.406737 -0.913545 0
    outer loop
      vertex -6.18034 19.0211 -118.75
      vertex -6.18034 19.0211 -113.75
      vertex -10 17.3205 -113.75
    endloop
  endfacet
  facet normal 0.406737 -0.913545 0
    outer loop
      vertex -10 17.3205 -118.75
      vertex -6.18034 19.0211 -118.75
      vertex -10 17.3205 -113.75
    endloop
  endfacet
  facet normal 0.587785 -0.809017 0
    outer loop
      vertex -10 17.3205 -118.75
      vertex -10 17.3205 -113.75
      vertex -13.3826 14.8629 -113.75
    endloop
  endfacet
  facet normal 0.587785 -0.809017 0
    outer loop
      vertex -13.3826 14.8629 -118.75
      vertex -10 17.3205 -118.75
      vertex -13.3826 14.8629 -113.75
    endloop
  endfacet
  facet normal 0.743145 -0.669131 0
    outer loop
      vertex -13.3826 14.8629 -118.75
      vertex -13.3826 14.8629 -113.75
      vertex -16.1803 11.7557 -113.75
    endloop
  endfacet
  facet normal 0.743145 -0.669131 0
    outer loop
      vertex -16.1803 11.7557 -118.75
      vertex -13.3826 14.8629 -118.75
      vertex -16.1803 11.7557 -113.75
    endloop
  endfacet
  facet normal 0.866025 -0.5 0
    outer loop
      vertex -16.1803 11.7557 -118.75
      vertex -16.1803 11.7557 -113.75
      vertex -18.2709 8.13473 -113.75
    endloop
  endfacet
  facet normal 0.866025 -0.5 0
    outer loop
      vertex -18.2709 8.13473 -118.75
      vertex -16.1803 11.7557 -118.75
      vertex -18.2709 8.13473 -113.75
    endloop
  endfacet
  facet normal 0.951057 -0.309017 0
    outer loop
      vertex -18.2709 8.13473 -118.75
      vertex -18.2709 8.13473 -113.75
      vertex -19.563 4.15823 -113.75
    endloop
  endfacet
  facet normal 0.951057 -0.309017 0
    outer loop
      vertex -19.563 4.15823 -118.75
      vertex -18.2709 8.13473 -118.75
      vertex -19.563 4.15823 -113.75
    endloop
  endfacet
  facet normal 0.994522 -0.104528 0
    outer loop
      vertex -19.563 4.15823 -118.75
      vertex -19.563 4.15823 -113.75
      vertex -19.7482 2.3957 -113.75
    endloop
  endfacet
  facet normal 0.994522 -0.104528 0
    outer loop
      vertex -19.7482 2.3957 -118.75
      vertex -19.563 4.15823 -118.75
      vertex -19.7482 2.3957 -113.75
    endloop
  endfacet
  facet normal 0.382683 0.92388 0
    outer loop
      vertex -20 2.5 -113.75
      vertex -20 2.5 -70
      vertex -19.7482 2.3957 -113.75
    endloop
  endfacet
  facet normal 0.382683 0.92388 0
    outer loop
      vertex -19.7482 2.3957 -113.75
      vertex -20 2.5 -70
      vertex -18.2322 1.76777 -70
    endloop
  endfacet
  facet normal 0.382683 0.92388 0
    outer loop
      vertex -19.7482 2.3957 -113.75
      vertex -18.2322 1.76777 -70
      vertex -18.2322 1.76777 -118.75
    endloop
  endfacet
  facet normal 0.382683 0.92388 0
    outer loop
      vertex -19.7482 2.3957 -113.75
      vertex -18.2322 1.76777 -118.75
      vertex -19.7482 2.3957 -118.75
    endloop
  endfacet
  facet normal -0.382683 0.92388 0
    outer loop
      vertex -21.7678 1.76777 -113.75
      vertex -21.7678 1.76777 -70
      vertex -20 2.5 -113.75
    endloop
  endfacet
  facet normal -0.382683 0.92388 0
    outer loop
      vertex -20 2.5 -113.75
      vertex -21.7678 1.76777 -70
      vertex -20 2.5 -70
    endloop
  endfacet
  facet normal -0.92388 0.382683 0
    outer loop
      vertex -22.5 -3.67394e-15 -113.75
      vertex -22.5 -3.67394e-15 -70
      vertex -21.7678 1.76777 -113.75
    endloop
  endfacet
  facet normal -0.92388 0.382683 0
    outer loop
      vertex -21.7678 1.76777 -113.75
      vertex -22.5 -3.67394e-15 -70
      vertex -21.7678 1.76777 -70
    endloop
  endfacet
  facet normal 0 0 1
    outer loop
      vertex -21.7678 1.76777 -70
      vertex -22.5 -3.67394e-15 -70
      vertex -21.7678 -1.76777 -70
    endloop
  endfacet
  facet normal 0 0 1
    outer loop
      vertex -18.2322 -1.76777 -70
      vertex -21.7678 1.76777 -70
      vertex -20 -2.5 -70
    endloop
  endfacet
  facet normal 0 0 1
    outer loop
      vertex -20 -2.5 -70
      vertex -21.7678 1.76777 -70
      vertex -21.7678 -1.76777 -70
    endloop
  endfacet
  facet normal 0 0 1
    outer loop
      vertex -17.5 -3.67394e-15 -70
      vertex -21.7678 1.76777 -70
      vertex -18.2322 -1.76777 -70
    endloop
  endfacet
  facet normal 0 0 1
    outer loop
      vertex -18.2322 1.76777 -70
      vertex -21.7678 1.76777 -70
      vertex -17.5 -3.67394e-15 -70
    endloop
  endfacet
  facet normal 0 0 1
    outer loop
      vertex -20 2.5 -70
      vertex -21.7678 1.76777 -70
      vertex -18.2322 1.76777 -70
    endloop
  endfacet
  facet normal 0.92388 -0.382683 0
    outer loop
      vertex -18.2322 -1.76777 -70
      vertex -18.2322 -1.76777 -118.75
      vertex -17.5 -3.67394e-15 -118.75
    endloop
  endfacet
  facet normal 0.92388 -0.382683 0
    outer loop
      vertex -17.5 -3.67394e-15 -70
      vertex -18.2322 -1.76777 -70
      vertex -17.5 -3.67394e-15 -118.75
    endloop
  endfacet
  facet normal 0 0 1
    outer loop
      vertex -18.2709 -8.13473 -118.75
      vertex -17.5 -3.67394e-15 -118.75
      vertex -18.2322 -1.76777 -118.75
    endloop
  endfacet
  facet normal 0 0 1
    outer loop
      vertex -1.76777 -18.2322 -118.75
      vertex 2.44929e-15 -17.5 -118.75
      vertex -18.2322 1.76777 -118.75
    endloop
  endfacet
  facet normal 0 0 1
    outer loop
      vertex -18.2322 1.76777 -118.75
      vertex -17.5 -3.67394e-15 -118.75
      vertex -10 -17.3205 -118.75
    endloop
  endfacet
  facet normal 0 0 1
    outer loop
      vertex -19.7482 -2.3957 -118.75
      vertex -19.563 -4.15823 -118.75
      vertex -18.2322 -1.76777 -118.75
    endloop
  endfacet
  facet normal 0 0 1
    outer loop
      vertex -19.563 -4.15823 -118.75
      vertex -18.2709 -8.13473 -118.75
      vertex -18.2322 -1.76777 -118.75
    endloop
  endfacet
  facet normal 0 0 1
    outer loop
      vertex -18.2709 -8.13473 -118.75
      vertex -16.1803 -11.7557 -118.75
      vertex -17.5 -3.67394e-15 -118.75
    endloop
  endfacet
  facet normal 0 0 1
    outer loop
      vertex -16.1803 -11.7557 -118.75
      vertex -13.3826 -14.8629 -118.75
      vertex -17.5 -3.67394e-15 -118.75
    endloop
  endfacet
  facet normal 0 0 1
    outer loop
      vertex -13.3826 -14.8629 -118.75
      vertex -10 -17.3205 -118.75
      vertex -17.5 -3.67394e-15 -118.75
    endloop
  endfacet
  facet normal 0 0 1
    outer loop
      vertex -10 -17.3205 -118.75
      vertex -6.18034 -19.0211 -118.75
      vertex -18.2322 1.76777 -118.75
    endloop
  endfacet
  facet normal 0 0 1
    outer loop
      vertex -6.18034 -19.0211 -118.75
      vertex -2.42516 -19.8193 -118.75
      vertex -18.2322 1.76777 -118.75
    endloop
  endfacet
  facet normal 0 0 1
    outer loop
      vertex -2.42516 -19.8193 -118.75
      vertex -1.76777 -18.2322 -118.75
      vertex -18.2322 1.76777 -118.75
    endloop
  endfacet
  facet normal 0 0 1
    outer loop
      vertex 2.44929e-15 -17.5 -118.75
      vertex 1.76777 -18.2322 -118.75
      vertex -18.2322 1.76777 -118.75
    endloop
  endfacet
  facet normal 0 0 1
    outer loop
      vertex 1.76777 -18.2322 -118.75
      vertex 6.18034 -19.0211 -118.75
      vertex -18.2322 1.76777 -118.75
    endloop
  endfacet
  facet normal 0 0 1
    outer loop
      vertex 18.2322 -1.76777 -118.75
      vertex 17.5 1.22465e-15 -118.75
      vertex -18.2322 1.76777 -118.75
    endloop
  endfacet
  facet normal 0 0 1
    outer loop
      vertex 2.42516 -19.8193 -118.75
      vertex 6.18034 -19.0211 -118.75
      vertex 1.76777 -18.2322 -118.75
    endloop
  endfacet
  facet normal 0 0 1
    outer loop
      vertex 6.18034 -19.0211 -118.75
      vertex 10 -17.3205 -118.75
      vertex -18.2322 1.76777 -118.75
    endloop
  endfacet
  facet normal 0 0 1
    outer loop
      vertex 10 -17.3205 -118.75
      vertex 13.3826 -14.8629 -118.75
      vertex -18.2322 1.76777 -118.75
    endloop
  endfacet
  facet normal 0 0 1
    outer loop
      vertex 13.3826 -14.8629 -118.75
      vertex 16.1803 -11.7557 -118.75
      vertex -18.2322 1.76777 -118.75
    endloop
  endfacet
  facet normal 0 0 1
    outer loop
      vertex 16.1803 -11.7557 -118.75
      vertex 18.2709 -8.13473 -118.75
      vertex -18.2322 1.76777 -118.75
    endloop
  endfacet
  facet normal 0 0 1
    outer loop
      vertex 18.2709 -8.13473 -118.75
      vertex 19.563 -4.15823 -118.75
      vertex -18.2322 1.76777 -118.75
    endloop
  endfacet
  facet normal 0 0 1
    outer loop
      vertex 19.563 -4.15823 -118.75
      vertex 19.7482 -2.3957 -118.75
      vertex -18.2322 1.76777 -118.75
    endloop
  endfacet
  facet normal 0 0 1
    outer loop
      vertex 19.7482 -2.3957 -118.75
      vertex 18.2322 -1.76777 -118.75
      vertex -18.2322 1.76777 -118.75
    endloop
  endfacet
  facet normal 0 0 1
    outer loop
      vertex 17.5 1.22465e-15 -118.75
      vertex 18.2322 1.76777 -118.75
      vertex -18.2322 1.76777 -118.75
    endloop
  endfacet
  facet normal 0 0 1
    outer loop
      vertex 18.2322 1.76777 -118.75
      vertex 19.7482 2.3957 -118.75
      vertex -18.2322 1.76777 -118.75
    endloop
  endfacet
  facet normal 0 0 1
    outer loop
      vertex -1.76777 18.2322 -118.75
      vertex -2.42516 19.8193 -118.75
      vertex -18.2322 1.76777 -118.75
    endloop
  endfacet
  facet normal 0 0 1
    outer loop
      vertex 19.7482 2.3957 -118.75
      vertex 19.563 4.15823 -118.75
      vertex -18.2322 1.76777 -118.75
    endloop
  endfacet
  facet normal 0 0 1
    outer loop
      vertex 19.563 4.15823 -118.75
      vertex 18.2709 8.13473 -118.75
      vertex -18.2322 1.76777 -118.75
    endloop
  endfacet
  facet normal 0 0 1
    outer loop
      vertex 18.2709 8.13473 -118.75
      vertex 16.1803 11.7557 -118.75
      vertex -18.2322 1.76777 -118.75
    endloop
  endfacet
  facet normal 0 0 1
    outer loop
      vertex 16.1803 11.7557 -118.75
      vertex 13.3826 14.8629 -118.75
      vertex -18.2322 1.76777 -118.75
    endloop
  endfacet
  facet normal 0 0 1
    outer loop
      vertex 13.3826 14.8629 -118.75
      vertex 10 17.3205 -118.75
      vertex -18.2322 1.76777 -118.75
    endloop
  endfacet
  facet normal 0 0 1
    outer loop
      vertex 10 17.3205 -118.75
      vertex 6.18034 19.0211 -118.75
      vertex -18.2322 1.76777 -118.75
    endloop
  endfacet
  facet normal 0 0 1
    outer loop
      vertex 6.18034 19.0211 -118.75
      vertex 1.76777 18.2322 -118.75
      vertex -18.2322 1.76777 -118.75
    endloop
  endfacet
  facet normal 0 0 1
    outer loop
      vertex 6.18034 19.0211 -118.75
      vertex 2.42516 19.8193 -118.75
      vertex 1.76777 18.2322 -118.75
    endloop
  endfacet
  facet normal 0 0 1
    outer loop
      vertex 1.76777 18.2322 -118.75
      vertex 0 17.5 -118.75
      vertex -18.2322 1.76777 -118.75
    endloop
  endfacet
  facet normal 0 0 1
    outer loop
      vertex -2.42516 19.8193 -118.75
      vertex -6.18034 19.0211 -118.75
      vertex -18.2322 1.76777 -118.75
    endloop
  endfacet
  facet normal 0 0 1
    outer loop
      vertex -6.18034 19.0211 -118.75
      vertex -10 17.3205 -118.75
      vertex -18.2322 1.76777 -118.75
    endloop
  endfacet
  facet normal 0 0 1
    outer loop
      vertex -10 17.3205 -118.75
      vertex -13.3826 14.8629 -118.75
      vertex -18.2322 1.76777 -118.75
    endloop
  endfacet
  facet normal 0 0 1
    outer loop
      vertex -13.3826 14.8629 -118.75
      vertex -16.1803 11.7557 -118.75
      vertex -18.2322 1.76777 -118.75
    endloop
  endfacet
  facet normal 0 0 1
    outer loop
      vertex 0 17.5 -118.75
      vertex -1.76777 18.2322 -118.75
      vertex -18.2322 1.76777 -118.75
    endloop
  endfacet
  facet normal 0 0 1
    outer loop
      vertex -19.7482 2.3957 -118.75
      vertex -18.2709 8.13473 -118.75
      vertex -19.563 4.15823 -118.75
    endloop
  endfacet
  facet normal 0 0 1
    outer loop
      vertex -19.7482 2.3957 -118.75
      vertex -16.1803 11.7557 -118.75
      vertex -18.2709 8.13473 -118.75
    endloop
  endfacet
  facet normal 0 0 1
    outer loop
      vertex -19.7482 2.3957 -118.75
      vertex -18.2322 1.76777 -118.75
      vertex -16.1803 11.7557 -118.75
    endloop
  endfacet
  facet normal -0.382683 0.92388 0
    outer loop
      vertex -1.76777 -18.2322 -118.75
      vertex -1.76777 -18.2322 -70
      vertex 2.44929e-15 -17.5 -118.75
    endloop
  endfacet
  facet normal -0.382683 0.92388 0
    outer loop
      vertex 2.44929e-15 -17.5 -118.75
      vertex -1.76777 -18.2322 -70
      vertex 2.44929e-15 -17.5 -70
    endloop
  endfacet
  facet normal 0 0 1
    outer loop
      vertex -1.76777 -18.2322 -70
      vertex -2.5 -20 -70
      vertex -1.76777 -21.7678 -70
    endloop
  endfacet
  facet normal 0 0 1
    outer loop
      vertex 1.76777 -21.7678 -70
      vertex -1.76777 -18.2322 -70
      vertex 2.44929e-15 -22.5 -70
    endloop
  endfacet
  facet normal 0 0 1
    outer loop
      vertex 2.44929e-15 -22.5 -70
      vertex -1.76777 -18.2322 -70
      vertex -1.76777 -21.7678 -70
    endloop
  endfacet
  facet normal 0 0 1
    outer loop
      vertex 2.5 -20 -70
      vertex -1.76777 -18.2322 -70
      vertex 1.76777 -21.7678 -70
    endloop
  endfacet
  facet normal 0 0 1
    outer loop
      vertex 1.76777 -18.2322 -70
      vertex -1.76777 -18.2322 -70
      vertex 2.5 -20 -70
    endloop
  endfacet
  facet normal 0 0 1
    outer loop
      vertex 2.44929e-15 -17.5 -70
      vertex -1.76777 -18.2322 -70
      vertex 1.76777 -18.2322 -70
    endloop
  endfacet
  facet normal 0.382683 0.92388 0
    outer loop
      vertex 2.44929e-15 -17.5 -118.75
      vertex 2.44929e-15 -17.5 -70
      vertex 1.76777 -18.2322 -118.75
    endloop
  endfacet
  facet normal 0.382683 0.92388 0
    outer loop
      vertex 1.76777 -18.2322 -118.75
      vertex 2.44929e-15 -17.5 -70
      vertex 1.76777 -18.2322 -70
    endloop
  endfacet
  facet normal 0 0 1
    outer loop
      vertex 18.2322 1.76777 -70
      vertex 17.5 1.22465e-15 -70
      vertex 18.2322 -1.76777 -70
    endloop
  endfacet
  facet normal 0 0 1
    outer loop
      vertex 21.7678 -1.76777 -70
      vertex 18.2322 1.76777 -70
      vertex 20 -2.5 -70
    endloop
  endfacet
  facet normal 0 0 1
    outer loop
      vertex 20 -2.5 -70
      vertex 18.2322 1.76777 -70
      vertex 18.2322 -1.76777 -70
    endloop
  endfacet
  facet normal 0 0 1
    outer loop
      vertex 22.5 1.22465e-15 -70
      vertex 18.2322 1.76777 -70
      vertex 21.7678 -1.76777 -70
    endloop
  endfacet
  facet normal 0 0 1
    outer loop
      vertex 21.7678 1.76777 -70
      vertex 18.2322 1.76777 -70
      vertex 22.5 1.22465e-15 -70
    endloop
  endfacet
  facet normal 0 0 1
    outer loop
      vertex 20 2.5 -70
      vertex 18.2322 1.76777 -70
      vertex 21.7678 1.76777 -70
    endloop
  endfacet
  facet normal -0.92388 -0.382683 0
    outer loop
      vertex 17.5 1.22465e-15 -118.75
      vertex 18.2322 -1.76777 -118.75
      vertex 17.5 1.22465e-15 -70
    endloop
  endfacet
  facet normal -0.92388 -0.382683 0
    outer loop
      vertex 17.5 1.22465e-15 -70
      vertex 18.2322 -1.76777 -118.75
      vertex 18.2322 -1.76777 -70
    endloop
  endfacet
  facet normal -0.92388 0.382683 0
    outer loop
      vertex 17.5 1.22465e-15 -118.75
      vertex 17.5 1.22465e-15 -70
      vertex 18.2322 1.76777 -118.75
    endloop
  endfacet
  facet normal -0.92388 0.382683 0
    outer loop
      vertex 18.2322 1.76777 -118.75
      vertex 17.5 1.22465e-15 -70
      vertex 18.2322 1.76777 -70
    endloop
  endfacet
  facet normal 0 0 1
    outer loop
      vertex -1.76777 21.7678 -70
      vertex -2.5 20 -70
      vertex -1.76777 18.2322 -70
    endloop
  endfacet
  facet normal 0 0 1
    outer loop
      vertex 1.76777 18.2322 -70
      vertex -1.76777 21.7678 -70
      vertex 0 17.5 -70
    endloop
  endfacet
  facet normal 0 0 1
    outer loop
      vertex 0 17.5 -70
      vertex -1.76777 21.7678 -70
      vertex -1.76777 18.2322 -70
    endloop
  endfacet
  facet normal 0 0 1
    outer loop
      vertex 2.5 20 -70
      vertex -1.76777 21.7678 -70
      vertex 1.76777 18.2322 -70
    endloop
  endfacet
  facet normal 0 0 1
    outer loop
      vertex 1.76777 21.7678 -70
      vertex -1.76777 21.7678 -70
      vertex 2.5 20 -70
    endloop
  endfacet
  facet normal 0 0 1
    outer loop
      vertex 0 22.5 -70
      vertex -1.76777 21.7678 -70
      vertex 1.76777 21.7678 -70
    endloop
  endfacet
  facet normal 0.382683 -0.92388 0
    outer loop
      vertex 0 17.5 -70
      vertex 0 17.5 -118.75
      vertex 1.76777 18.2322 -118.75
    endloop
  endfacet
  facet normal 0.382683 -0.92388 0
    outer loop
      vertex 1.76777 18.2322 -70
      vertex 0 17.5 -70
      vertex 1.76777 18.2322 -118.75
    endloop
  endfacet
  facet normal -0.382683 -0.92388 0
    outer loop
      vertex -1.76777 18.2322 -70
      vertex -1.76777 18.2322 -118.75
      vertex 0 17.5 -118.75
    endloop
  endfacet
  facet normal -0.382683 -0.92388 0
    outer loop
      vertex 0 17.5 -70
      vertex -1.76777 18.2322 -70
      vertex 0 17.5 -118.75
    endloop
  endfacet
  facet normal 0.92388 0.382683 0
    outer loop
      vertex -17.5 -3.67394e-15 -118.75
      vertex -18.2322 1.76777 -118.75
      vertex -18.2322 1.76777 -70
    endloop
  endfacet
  facet normal 0.92388 0.382683 0
    outer loop
      vertex -17.5 -3.67394e-15 -70
      vertex -17.5 -3.67394e-15 -118.75
      vertex -18.2322 1.76777 -70
    endloop
  endfacet
endsolid OpenSCAD_Model
